<svg width="35" height="34" viewBox="0 0 35 34" fill="none" xmlns="http://www.w3.org/2000/svg">
<g clip-path="url(#clip0_211_2332)">
<path d="M12.4102 6.38647C14.0519 6.38657 15.654 6.89158 16.9991 7.83276C18.3443 8.77407 19.3672 10.1067 19.9297 11.6492C20.4922 13.1916 20.567 14.8696 20.1436 16.4558C19.7201 18.0421 18.819 19.4604 17.5625 20.5173L17.1397 20.8728L17.6436 21.1003C19.7131 22.0369 21.4937 23.5111 22.8008 25.3689L22.8057 25.3757L22.8116 25.3826C22.9131 25.5127 22.9873 25.6625 23.0293 25.822C23.0714 25.9815 23.0799 26.1481 23.0557 26.3113C23.0315 26.4745 22.9743 26.6308 22.8877 26.7712C22.8012 26.9117 22.6876 27.0337 22.5528 27.1287C22.4179 27.2236 22.2648 27.2898 22.1035 27.324C21.9421 27.3581 21.7751 27.3591 21.6133 27.3269C21.4515 27.2947 21.2972 27.2299 21.1612 27.1365H21.1621C21.0261 27.0431 20.9096 26.9234 20.8213 26.7839L20.8174 26.7771L20.8125 26.7703L20.6309 26.5203C19.7069 25.2849 18.5158 24.272 17.1446 23.5593C15.6822 22.7993 14.0583 22.4022 12.4102 22.4021C10.7619 22.4021 9.13736 22.7992 7.67484 23.5593C6.21227 24.3195 4.95403 25.4212 4.00687 26.7703L4.00589 26.7712C3.89457 26.931 3.746 27.0612 3.57327 27.1511C3.40046 27.241 3.20851 27.2884 3.0137 27.2878H3.01175C2.76186 27.2887 2.51779 27.2105 2.31448 27.0652L2.31253 27.0642L2.2178 26.99C2.00632 26.8069 1.86374 26.5551 1.81546 26.2771C1.76721 25.9991 1.81672 25.7141 1.95413 25.4705L2.01859 25.3689C3.32565 23.5111 5.1063 22.0369 7.17581 21.1003L7.67972 20.8728L7.25687 20.5173C6.00044 19.4604 5.09927 18.0421 4.67581 16.4558C4.25244 14.8696 4.32719 13.1916 4.88968 11.6492C5.45221 10.1067 6.47511 8.77407 7.82034 7.83276C9.16557 6.89149 10.7683 6.38647 12.4102 6.38647ZM23.0459 6.39624H23.0479C24.6906 6.39154 26.2952 6.89402 27.6426 7.83374C28.99 8.77352 30.015 10.106 30.5782 11.6492C31.1412 13.1922 31.2154 14.8712 30.7901 16.4578C30.3646 18.0445 29.46 19.4619 28.2002 20.5164L27.7754 20.8718L28.2803 21.1003C30.3498 22.0369 32.1304 23.5111 33.4375 25.3689L33.4395 25.3708C33.5323 25.5007 33.5983 25.6479 33.6338 25.8035C33.6693 25.9591 33.6738 26.1208 33.6465 26.2781C33.6192 26.4354 33.5606 26.5859 33.4746 26.7205C33.3887 26.8551 33.2768 26.9713 33.1455 27.0623L33.1416 27.0652C32.9383 27.2105 32.6943 27.2877 32.4444 27.2869C32.2493 27.2856 32.0569 27.2383 31.8838 27.1482C31.7106 27.058 31.5613 26.9276 31.4483 26.7683C30.4992 25.4222 29.241 24.3233 27.7793 23.5642C26.4087 22.8525 24.8965 22.4588 23.3555 22.4109L23.0469 22.406L22.9258 22.4001C22.6472 22.3724 22.3854 22.2492 22.1856 22.0496C21.9572 21.8211 21.8282 21.5113 21.8282 21.1882C21.8282 20.8652 21.9571 20.5553 22.1856 20.3269C22.414 20.0986 22.7239 19.9705 23.0469 19.9705C24.5236 19.9704 25.9402 19.3828 26.9844 18.3386C28.0285 17.2944 28.6153 15.8778 28.6153 14.4011C28.6152 12.9244 28.0286 11.5078 26.9844 10.4636C26.0053 9.4845 24.6988 8.9078 23.3223 8.8396L23.0469 8.83276C22.5378 8.83183 22.0306 8.90208 21.541 9.04175L21.42 9.07202C21.3015 9.09487 21.18 9.09957 21.0596 9.08667C20.899 9.06946 20.7431 9.02104 20.6016 8.94312C20.4602 8.86526 20.3358 8.75993 20.2354 8.63354C20.1349 8.507 20.0604 8.36133 20.0166 8.20581C19.9729 8.0503 19.9608 7.88764 19.9805 7.72729C20.0002 7.56701 20.0518 7.41247 20.1319 7.27222C20.212 7.13192 20.3192 7.00837 20.4473 6.90991C20.5753 6.81157 20.7219 6.7393 20.878 6.698L20.8838 6.69702C21.587 6.49683 22.3148 6.39503 23.0459 6.39624ZM13.4961 8.94019C12.4159 8.72532 11.2959 8.83512 10.2784 9.25659C9.26097 9.67806 8.39116 10.3918 7.77933 11.3074C7.16751 12.223 6.84092 13.2999 6.84085 14.4011C6.84085 15.8778 7.42766 17.2944 8.47171 18.3386C9.51602 19.3829 10.9333 19.9705 12.4102 19.9705C13.5112 19.9704 14.5875 19.6435 15.503 19.032C16.4187 18.4201 17.1332 17.5495 17.5547 16.532C17.976 15.5146 18.0859 14.3952 17.8711 13.3152C17.6563 12.235 17.1264 11.2424 16.3477 10.4636C15.5689 9.68487 14.5763 9.15506 13.4961 8.94019Z" fill="#4CAF4F" stroke="#4CAF4F" stroke-width="0.696069"/>
</g>
<defs>
<clipPath id="clip0_211_2332">
<rect width="33.4113" height="33.4113" fill="white" transform="translate(0.924561 0.306152)"/>
</clipPath>
</defs>
</svg>
