<svg width="35" height="35" viewBox="0 0 35 35" fill="none" xmlns="http://www.w3.org/2000/svg">
<rect x="0.942841" y="0.919434" width="33.4113" height="33.4113" rx="5.56856" fill="#F5F7FA"/>
<g clip-path="url(#clip0_211_2537)">
<path d="M27.6981 9.05691C27.6981 9.38128 27.9642 9.64422 28.2926 9.64422H28.8872C29.2156 9.64422 29.4817 9.38128 29.4817 9.05691C29.4817 8.73255 29.2156 8.4696 28.8872 8.4696H28.2926C27.9642 8.4696 27.6981 8.73255 27.6981 9.05691Z" fill="#212326"/>
<path d="M10.4558 27.2635H13.3441L12.5032 26.4329C12.2803 26.2126 11.9778 26.0889 11.6624 26.0889H10.4558C5.85869 26.0889 2.13199 22.4076 2.13199 17.8665C2.13199 13.3255 5.85869 9.64423 10.4558 9.64422H19.9688C24.5659 9.64422 28.2926 13.3255 28.2926 17.8665C28.2926 22.4076 24.5659 26.0889 19.9688 26.0889H16.4102C15.9371 26.0889 15.4834 25.9032 15.1489 25.5728L14.1638 24.5997C13.6063 24.049 12.8501 23.7396 12.0617 23.7396H10.4558C7.17214 23.7396 4.51023 21.1102 4.51023 17.8665C4.51023 14.6229 7.17214 11.9935 10.4558 11.9935H19.9688C23.2525 11.9935 25.9144 14.6229 25.9144 17.8665C25.9144 21.1102 23.2525 23.7396 19.9688 23.7396H17.6838C17.2107 23.7396 16.7571 23.554 16.4225 23.2236L15.4374 22.2505C14.8799 21.6998 14.1238 21.3904 13.3353 21.3904H10.4558C8.48564 21.3904 6.88846 19.8127 6.88846 17.8665C6.88846 15.9204 8.48564 14.3427 10.4558 14.3427H19.9688C21.9389 14.3427 23.5361 15.9204 23.5361 17.8665C23.5361 19.789 21.9777 21.3519 20.0407 21.3897L20.0403 21.3904H19.1702C18.6971 21.3904 18.2435 21.2048 17.9089 20.8744L16.9238 19.9013C16.4664 19.4494 15.8752 19.16 15.2422 19.0707L15.2123 19.0412H10.4558C9.79909 19.0412 9.2667 18.5153 9.2667 17.8665C9.2667 17.2178 9.79909 16.6919 10.4558 16.6919H19.9688C20.6255 16.6919 21.1579 17.2178 21.1579 17.8665C21.1579 18.5153 20.6255 19.0412 19.9688 19.0412H17.5905L18.4314 19.8718C18.6544 20.092 18.9568 20.2158 19.2722 20.2158H19.9688C21.2822 20.2158 22.347 19.164 22.347 17.8665C22.347 16.5691 21.2822 15.5173 19.9688 15.5173H10.4558C9.14237 15.5173 8.07758 16.5691 8.07758 17.8665C8.07758 19.164 9.14237 20.2158 10.4558 20.2158H14.8217C15.2948 20.2158 15.7485 20.4014 16.083 20.7318L17.0681 21.7049C17.6256 22.2556 18.3818 22.565 19.1702 22.565H20.2661V22.556C22.7545 22.4044 24.7252 20.3628 24.7252 17.8665C24.7252 15.2717 22.5957 13.1681 19.9688 13.1681H10.4558C7.82891 13.1681 5.69935 15.2717 5.69935 17.8665C5.69935 20.4615 7.82891 22.565 10.4558 22.565H13.3353C13.8084 22.565 14.2621 22.7506 14.5966 23.081L15.5817 24.0541C16.1392 24.6049 16.8954 24.9142 17.6838 24.9142H19.9688C23.9092 24.9142 27.1035 21.7589 27.1035 17.8665C27.1035 13.9742 23.9092 10.8188 19.9688 10.8188H10.4558C6.51541 10.8188 3.32111 13.9742 3.32111 17.8665C3.32111 21.7589 6.51541 24.9142 10.4558 24.9142H12.0617C12.5348 24.9142 12.9885 25.0999 13.323 25.4303L14.3081 26.4034C14.8656 26.9541 15.6217 27.2635 16.4102 27.2635H19.9688C25.2226 27.2635 29.4817 23.0563 29.4817 17.8665C29.4817 12.6768 25.2226 8.4696 19.9688 8.4696L10.4558 8.46961C5.20196 8.46961 0.942871 12.6768 0.942871 17.8665C0.942872 23.0563 5.20197 27.2635 10.4558 27.2635Z" fill="#212326"/>
</g>
<defs>
<clipPath id="clip0_211_2537">
<rect width="28.5388" height="18.7939" fill="white" transform="translate(0.942871 8.4696)"/>
</clipPath>
</defs>
</svg>
