<svg width="39" height="35" viewBox="0 0 39 35" fill="none" xmlns="http://www.w3.org/2000/svg">
<rect x="0.0424805" y="0.919434" width="33.4113" height="33.4113" rx="5.56856" fill="#F5F7FA"/>
<g clip-path="url(#clip0_211_2517)">
<path d="M38.3233 14.5042C38.3273 14.4752 38.3273 14.4458 38.3233 14.4168C38.3271 14.3932 38.3271 14.3691 38.3233 14.3453L38.0397 12.304C37.9988 12.0598 37.8894 11.8315 37.7238 11.6448L37.6751 11.5892L37.586 11.5018L32.6762 7.35559L32.814 7.49063C32.7013 7.35846 32.5599 7.25274 32.4 7.18126C32.2402 7.10978 32.066 7.07436 31.8904 7.0776H30.3996C30.1572 7.07289 29.9203 7.14845 29.7271 7.29206C29.5243 7.14932 29.28 7.07414 29.0304 7.0776H27.5396C27.3441 7.07449 27.1512 7.12206 26.9805 7.21551C26.8097 7.30896 26.6672 7.44497 26.5674 7.60977C26.4134 7.84515 26.3555 8.12874 26.4053 8.40406L26.5917 9.69081C26.4682 9.6222 26.3285 9.5866 26.1866 9.58756H18.9677C18.7087 9.58915 18.4557 9.66358 18.2385 9.80201C18.0285 9.93086 17.86 10.1154 17.7524 10.3342L17.1934 9.86555C16.9733 9.66597 16.6829 9.55779 16.3832 9.56373H5.05664C4.79672 9.56837 4.54257 9.63956 4.31938 9.77024C4.01404 9.94545 3.79026 10.2303 3.69552 10.5645L0.0982472 22.3597C0.0310335 22.5541 0.0244215 22.7637 0.0792581 22.9618C0.134095 23.1598 0.247897 23.3374 0.406125 23.4718C0.447355 23.506 0.490646 23.5379 0.53576 23.567C0.53576 23.567 0.46283 23.5194 0.42232 23.4797L5.33213 27.6338C5.53982 27.8213 5.81137 27.9261 6.09366 27.9277H17.5094C17.7701 27.9211 18.0244 27.8471 18.2467 27.7132C18.3723 27.6459 18.4848 27.5571 18.5788 27.4511L18.6193 27.3955L18.6841 27.3161L18.7327 27.2287L19.2675 27.6815C19.4722 27.8615 19.7379 27.9605 20.0129 27.9595H31.4528C31.7133 27.951 31.9671 27.8771 32.1901 27.745C32.313 27.6735 32.4248 27.5853 32.5223 27.4829L32.5628 27.4273L32.6276 27.3479C32.6621 27.2976 32.6919 27.2445 32.7167 27.189C32.7432 27.1408 32.7649 27.0903 32.7815 27.0381L36.0628 16.2675V16.1722C36.0669 16.1353 36.0669 16.098 36.0628 16.061V15.9896C36.0668 15.9659 36.0668 15.9417 36.0628 15.918C36.0665 15.8678 36.0665 15.8174 36.0628 15.7671H37.1161C37.2077 15.7754 37.2999 15.7754 37.3915 15.7671H37.4645C37.5238 15.7498 37.5809 15.7258 37.6346 15.6956H37.7157L37.8615 15.5844L37.9263 15.5368L38.0397 15.3938V15.3462L38.1207 15.2111C38.1162 15.1849 38.1162 15.158 38.1207 15.1317C38.1164 15.1188 38.1164 15.1049 38.1207 15.092C38.138 15.0454 38.1515 14.9976 38.1613 14.949C38.1575 14.9333 38.1575 14.917 38.1613 14.9013C38.1573 14.8777 38.1573 14.8535 38.1613 14.8299C38.1613 14.8299 38.3233 14.5201 38.3233 14.5042Z" fill="black"/>
<path d="M16.7153 10.4693C16.7583 10.5074 16.7884 10.5575 16.8014 10.6129C16.8145 10.6683 16.8099 10.7263 16.7883 10.779L13.1991 22.5663C13.1539 22.695 13.0614 22.8026 12.9398 22.8681C12.8409 22.933 12.7264 22.9713 12.6076 22.9793H1.20009C1.10267 22.9747 1.01037 22.9352 0.940824 22.8681C0.899451 22.8306 0.870413 22.7818 0.857423 22.7281C0.844434 22.6743 0.848092 22.618 0.867909 22.5663L4.46518 10.779C4.50663 10.6487 4.59618 10.5382 4.71634 10.4693C4.81692 10.409 4.93091 10.3736 5.04852 10.366H16.456C16.5527 10.3669 16.6454 10.4038 16.7153 10.4693ZM10.7604 20.1914L12.9074 13.1539H6.89578L4.75684 20.1914H10.7604ZM27.6044 10.5884C27.6433 10.6327 27.6919 10.6679 27.7466 10.6913C27.8014 10.7147 27.8607 10.7256 27.9204 10.7234H29.403C29.4595 10.724 29.5151 10.7104 29.5648 10.684C29.6144 10.6576 29.6563 10.6192 29.6866 10.5725C29.7129 10.536 29.7315 10.4947 29.7412 10.4511C29.751 10.4074 29.7516 10.3623 29.7432 10.3183L29.4516 8.22141C29.4238 8.12436 29.374 8.03474 29.3058 7.95929C29.2668 7.91495 29.2182 7.87978 29.1635 7.85641C29.1088 7.83303 29.0494 7.82204 28.9898 7.82426H27.5072C27.4507 7.82373 27.395 7.8373 27.3454 7.8637C27.2958 7.89011 27.2538 7.92848 27.2236 7.97518C27.1669 8.08638 27.1426 8.15786 27.1669 8.22141L27.4666 10.3183C27.482 10.4204 27.5303 10.5151 27.6044 10.5884ZM32.3116 8.20552C32.2838 8.10847 32.2339 8.01885 32.1658 7.94341C32.1285 7.89922 32.0813 7.86407 32.0279 7.84065C31.9745 7.81724 31.9163 7.80619 31.8579 7.80838H30.3671C30.3116 7.80683 30.2567 7.82003 30.2082 7.8466C30.1597 7.87317 30.1194 7.91211 30.0917 7.95929C30.0378 8.02976 30.0144 8.11827 30.0269 8.20552L30.3266 10.3024C30.3454 10.4035 30.3932 10.4971 30.4644 10.5725C30.504 10.616 30.5527 10.6506 30.6073 10.6739C30.6618 10.6972 30.7208 10.7086 30.7803 10.7075H32.2711C32.3265 10.7082 32.3811 10.6947 32.4294 10.6682C32.4778 10.6417 32.5182 10.6032 32.5466 10.5566C32.5748 10.5211 32.5944 10.4798 32.6043 10.4358C32.6141 10.3918 32.6137 10.3463 32.6033 10.3024L32.3116 8.20552ZM26.2999 11.3827L26.1541 10.3501H18.9677C18.8548 10.3562 18.7457 10.3919 18.6517 10.4534C18.592 10.4853 18.5401 10.5295 18.4995 10.583C18.459 10.6364 18.4308 10.6979 18.4168 10.7631L17.8172 12.733C17.7933 12.7822 17.7851 12.8374 17.7938 12.8913C17.8025 12.9452 17.8276 12.9952 17.8658 13.0348C17.9341 13.0978 18.0233 13.1345 18.117 13.1381H26.8509L24.7039 20.1755H15.9943C15.882 20.178 15.7726 20.211 15.6783 20.2708C15.5637 20.3421 15.48 20.4524 15.4433 20.5805L14.8357 22.5504C14.8159 22.6009 14.8106 22.6559 14.8206 22.7091C14.8307 22.7624 14.8555 22.8119 14.8924 22.8522C14.9586 22.9194 15.0484 22.9592 15.1436 22.9634H26.5835C26.7018 22.9534 26.8159 22.9153 26.9157 22.8522C27.0353 22.7863 27.1251 22.6785 27.1669 22.5504L30.4562 11.7798H26.7537C26.6949 11.781 26.6366 11.7703 26.5822 11.7484C26.5279 11.7266 26.4787 11.694 26.4377 11.6527C26.3707 11.5807 26.3233 11.4933 26.2999 11.3986V11.3827Z" fill="white"/>
</g>
<defs>
<clipPath id="clip0_211_2517">
<rect width="38.2838" height="20.8821" fill="white" transform="translate(0.0424805 7.07739)"/>
</clipPath>
</defs>
</svg>
