<svg width="34" height="35" viewBox="0 0 34 35" fill="none" xmlns="http://www.w3.org/2000/svg">
<rect x="-0.00735474" y="0.919434" width="33.4113" height="33.4113" rx="5.56856" fill="#F5F7FA"/>
<g clip-path="url(#clip0_211_2521)">
<path d="M30.6173 10.2548C30.6173 10.2783 30.6173 10.3077 30.6112 10.3254C30.5805 10.5549 30.5805 10.7843 30.5989 11.0197C30.6112 11.0785 30.6234 11.1374 30.6725 11.1845C30.7522 11.2727 30.8747 11.2551 30.9238 11.1492C30.9484 11.0962 30.9484 11.0432 30.9361 10.9903C30.8747 10.7667 30.8625 10.5313 30.8564 10.3018C30.8564 10.2901 30.8564 10.2724 30.8564 10.2548C30.9238 10.2489 30.9851 10.243 31.0403 10.243C31.0832 10.2371 31.12 10.2312 31.1507 10.2136C31.2426 10.1665 31.2426 10.0665 31.1445 10.0194C31.1077 10.0017 31.0587 9.99585 31.0158 9.99585C30.8625 10.0017 30.7093 10.0017 30.556 10.0017C30.5008 10.0017 30.4456 10.0076 30.3904 10.0135C30.3598 10.0194 30.323 10.0194 30.2985 10.037C30.2555 10.0547 30.231 10.0841 30.231 10.1253C30.2372 10.1665 30.2555 10.19 30.2985 10.2077C30.323 10.2253 30.3536 10.2312 30.3843 10.2312C30.4579 10.2371 30.5376 10.2489 30.6173 10.2548ZM32.3032 10.5254C32.3032 10.5313 32.3094 10.5372 32.3094 10.5372C32.3339 10.6961 32.3584 10.8491 32.3768 11.002C32.383 11.055 32.3891 11.1021 32.4259 11.1433C32.5056 11.2433 32.6282 11.2315 32.6833 11.1256C32.7079 11.0727 32.714 11.0197 32.7018 10.9609C32.665 10.7843 32.6466 10.6078 32.6098 10.4372C32.5852 10.3312 32.5546 10.2312 32.524 10.1371C32.5056 10.0782 32.4627 10.037 32.3891 10.0312C32.3155 10.0194 32.2603 10.0547 32.2297 10.1077C32.1929 10.1547 32.1622 10.2018 32.1377 10.2548C32.0948 10.3489 32.058 10.4431 32.009 10.5313C32.0028 10.5549 31.9967 10.5725 31.9844 10.5902C31.9783 10.5784 31.9722 10.5725 31.9722 10.5725C31.8925 10.4254 31.8189 10.2783 31.7392 10.1371C31.7269 10.1253 31.7208 10.1135 31.7147 10.1018C31.6779 10.0488 31.635 10.0194 31.5676 10.0194C31.5062 10.0253 31.4572 10.0606 31.4266 10.1135C31.4143 10.1371 31.4143 10.1547 31.4081 10.1783C31.3836 10.3666 31.3529 10.5549 31.3285 10.7431C31.3162 10.8491 31.31 10.955 31.31 11.0609C31.3039 11.0844 31.31 11.1138 31.3223 11.1374C31.3346 11.1845 31.3714 11.2139 31.4204 11.2198C31.4817 11.2257 31.5246 11.208 31.543 11.1609C31.5614 11.1256 31.5676 11.0962 31.5737 11.0668C31.5982 10.9609 31.6166 10.8608 31.635 10.7608C31.6472 10.702 31.6534 10.6549 31.6718 10.5902C31.684 10.6137 31.6963 10.6313 31.7086 10.649C31.7637 10.7196 31.8189 10.7902 31.8863 10.8491C31.9538 10.8961 32.009 10.8903 32.0641 10.8373C32.0764 10.8255 32.0825 10.8196 32.0948 10.8079C32.15 10.7255 32.2174 10.6431 32.2726 10.5607C32.2849 10.549 32.291 10.5372 32.3032 10.5254Z" fill="#3A3B7B"/>
<path d="M18.1771 10.3703C18.1345 10.4821 18.1263 10.5627 18.146 10.6297C18.1677 10.7207 18.2241 10.7505 18.3007 10.7274C19.0208 10.5565 20.5999 11.0416 21.1845 11.1768C21.3224 11.2052 21.4345 11.0343 21.3405 10.8812C21.2031 10.7329 19.6248 10.0978 19.0225 10.0632C18.7865 10.0504 18.3644 9.99231 18.1771 10.3703Z" fill="#3A3B7B"/>
<path d="M24.3484 8.31467C24.4251 8.35718 24.468 8.39774 24.4892 8.44305C24.5207 8.50249 24.5041 8.54361 24.4511 8.5646C23.9751 8.78757 23.3417 9.74751 23.086 10.0786C23.024 10.1547 22.881 10.1105 22.8594 9.98524C22.8639 9.84363 23.4254 8.80188 23.7387 8.51814C23.8619 8.40736 24.0653 8.19 24.3484 8.31467Z" fill="#3A3B7B"/>
<path d="M20.5576 7.84216C20.6499 7.77546 20.7457 7.75209 20.7946 7.79544C21.5128 8.38494 21.8936 9.31846 22.1295 10.1731C22.1384 10.193 22.1389 10.2216 22.1318 10.2514C22.1289 10.2768 22.1095 10.3038 22.0787 10.3246C22.0458 10.3476 22.0174 10.3546 22.0041 10.3348C21.6894 9.92385 19.8916 8.32508 20.5576 7.84216Z" fill="#3A3B7B"/>
<path d="M5.34907 18.0625C5.5212 17.9395 5.70833 17.8371 5.90635 17.7577C6.11353 17.7008 6.33436 17.7102 6.53546 17.7846C6.73652 17.8589 6.90697 17.994 7.02091 18.1695C7.12284 18.3446 7.16271 18.5467 7.13457 18.7455C7.10644 18.9442 7.0118 19.1287 6.86486 19.2714C6.75097 19.387 6.62165 19.4877 6.48036 19.5709C5.85064 19.9614 5.21531 20.3304 4.58001 20.7209C4.45002 20.8186 4.31211 20.9062 4.16762 20.9829C3.94783 21.0881 3.69665 21.1163 3.45751 21.0626C3.21837 21.0089 3.00631 20.8767 2.858 20.6888C2.74713 20.5557 2.65356 20.4103 2.57935 20.2555C1.97749 19.0414 1.35333 17.8326 0.77375 16.597C0.506252 16.0621 0.288911 15.447 0.0771432 14.8533C-0.0144776 14.6808 -0.0323691 14.4808 0.0272784 14.2959C0.086926 14.1109 0.219406 13.9556 0.396539 13.8629C0.573673 13.7702 0.78148 13.7475 0.975772 13.7997C1.17006 13.8518 1.33551 13.9746 1.43692 14.142C1.74862 14.5395 2.02455 14.9618 2.2617 15.4043C2.86357 16.474 3.43758 17.5437 4.01715 18.5814C4.0509 18.6387 4.08811 18.694 4.12861 18.7472C4.56484 18.5711 4.97513 18.341 5.34907 18.0625Z" fill="#3A3B7B"/>
<path d="M11.572 17.6893C10.1955 19.2351 7.88837 18.8446 6.72922 16.8549C5.90443 15.4429 5.75954 13.1108 7.55402 11.6399C7.93721 11.332 8.39541 11.1222 8.88591 11.0302C9.48731 10.9474 10.1006 11.0493 10.638 11.3211C11.1755 11.593 11.6097 12.021 11.8786 12.5439C12.8594 14.2555 12.72 16.4377 11.572 17.6893ZM11.0147 14.0843C10.8685 13.6637 10.5751 13.3046 10.1844 13.068C9.96327 12.9168 9.69458 12.8432 9.42361 12.8598C9.15258 12.8763 8.89582 12.982 8.69644 13.159C7.89954 13.8383 7.73232 15.4482 8.3119 16.4056C8.38579 16.5618 8.49426 16.7005 8.62984 16.8122C8.76542 16.9238 8.92479 17.0057 9.09678 17.0521C9.26877 17.0984 9.44922 17.1082 9.62555 17.0806C9.80189 17.053 9.96976 16.9887 10.1175 16.8924C10.5495 16.5709 10.8664 16.1283 11.0242 15.626C11.1821 15.1237 11.1729 14.5867 10.9981 14.0897L11.0147 14.0843Z" fill="#3A3B7B"/>
<path d="M17.1894 14.7583C17.0485 14.7874 16.9029 14.7891 16.7613 14.7634C16.6197 14.7376 16.4848 14.685 16.3647 14.6085C16.2596 14.5508 16.1691 14.4715 16.0997 14.3762C16.0304 14.2809 15.984 14.1721 15.9637 14.0575C15.9434 13.943 15.9499 13.8255 15.9826 13.7136C16.0153 13.6017 16.0735 13.4982 16.1529 13.4104C16.2912 13.2341 16.4876 13.1078 16.7102 13.0521C17.2913 12.8902 17.8894 12.7915 18.4935 12.7579C18.6262 12.7431 18.7607 12.7539 18.889 12.7896C19.0173 12.8254 19.1369 12.8853 19.2407 12.9661C19.3445 13.0468 19.4305 13.1466 19.4936 13.2597C19.5567 13.3727 19.5956 13.4967 19.6081 13.6244C19.7822 14.2515 19.8013 14.9091 19.6638 15.5446C19.1622 17.5985 17.4346 18.3045 15.4953 17.6466C14.9509 17.4707 14.4736 17.1429 14.1244 16.7052C13.6586 16.1781 13.3284 15.5534 13.1603 14.8813C13.0241 14.2829 13.039 13.6619 13.2038 13.0701C13.3686 12.4783 13.6785 11.933 14.1076 11.4795C14.5149 10.9867 15.0435 10.5989 15.6458 10.351C16.0263 10.1496 16.4717 10.0924 16.8941 10.1905C16.9899 10.216 17.0769 10.2656 17.146 10.3341C17.2151 10.4027 17.2639 10.4878 17.2872 10.5806C17.3105 10.6734 17.3075 10.7704 17.2786 10.8617C17.2496 10.953 17.1958 11.0352 17.1226 11.0998C16.9834 11.2207 16.8322 11.3282 16.6712 11.4207C16.1757 11.7235 15.7446 12.1137 15.4005 12.5707C15.175 12.8664 15.0197 13.2059 14.9456 13.5653C14.8715 13.9248 14.8803 14.2955 14.9715 14.6513C15.0978 15.1365 15.3783 15.5721 15.7739 15.8976C17 16.9673 18.5938 15.935 18.3152 14.4748C17.9084 14.5711 17.5517 14.6727 17.1894 14.7583Z" fill="#3A3B7B"/>
<path d="M24.6795 17.775C22.8683 18.8448 20.8064 17.775 20.3549 15.5286C20.0261 13.924 20.6503 11.6775 22.8349 10.8218C23.2997 10.6436 23.8038 10.581 24.3005 10.6399C24.8973 10.7447 25.4448 11.0267 25.8657 11.4461C26.2866 11.8654 26.5598 12.401 26.6467 12.9773C27.0145 14.8867 26.1786 16.9246 24.6795 17.775ZM25.3092 14.1754C25.3087 13.731 25.1449 13.3011 24.8467 12.9612C24.6873 12.751 24.4568 12.6004 24.1946 12.535C23.9324 12.4697 23.6547 12.4936 23.4089 12.6029C22.428 13.0094 21.737 14.4856 21.9878 15.5714C22.007 15.7418 22.0646 15.9061 22.1568 16.0529C22.249 16.1997 22.3736 16.3253 22.5217 16.4211C22.6697 16.5169 22.8378 16.5804 23.0142 16.6074C23.1905 16.6343 23.3709 16.6239 23.5426 16.577C24.0611 16.4031 24.51 16.0783 24.8266 15.6477C25.1434 15.2171 25.3121 14.7024 25.3092 14.1754Z" fill="#3A3B7B"/>
<path d="M28.4783 18.2243C28.4509 18.4201 28.3437 18.5974 28.1802 18.7173C28.0166 18.8371 27.8101 18.8897 27.6061 18.8635C27.4022 18.8372 27.2174 18.7343 27.0926 18.5773C26.9676 18.4204 26.9129 18.2222 26.9402 18.0264C26.9675 17.8306 27.0748 17.6533 27.2383 17.5335C27.4019 17.4136 27.6084 17.361 27.8123 17.3872C28.0163 17.4135 28.201 17.5164 28.326 17.6734C28.4509 17.8304 28.5057 18.0286 28.4783 18.2243ZM27.9934 11.0089C28.0994 10.8535 28.2549 10.7352 28.4367 10.6716C28.6185 10.608 28.8168 10.6025 29.0022 10.6559C29.1905 10.7011 29.357 10.8071 29.4737 10.9561C29.5903 11.1051 29.6501 11.288 29.643 11.4742C29.6185 11.773 29.5719 12.0697 29.5037 12.3621C29.3198 13.3516 29.1415 14.3411 28.9464 15.32C28.8573 15.7104 28.7402 16.0848 28.612 16.4806C28.5675 16.6043 28.493 16.7162 28.3947 16.8069C28.3336 16.8752 28.2556 16.9275 28.1679 16.9591C28.0801 16.9908 27.9855 17.0006 27.8927 16.9878C27.7999 16.975 27.712 16.94 27.637 16.8859C27.5621 16.8319 27.5026 16.7605 27.4641 16.6785C27.3978 16.5314 27.3618 16.3734 27.3582 16.2132C27.3582 15.55 27.3582 14.8814 27.4027 14.2128C27.4785 13.2586 27.6275 12.3111 27.8486 11.378C27.8746 11.253 27.9236 11.1334 27.9934 11.025V11.0089Z" fill="#3A3B7B"/>
<path fill-rule="evenodd" clip-rule="evenodd" d="M2.99456 22.5224C2.92876 22.6634 2.91071 22.8205 2.94287 22.9718C2.96426 23.1712 3.01124 23.3673 3.08275 23.5557C3.17202 23.7864 3.27192 24.0145 3.3951 24.2956C3.42343 24.3603 3.45303 24.4278 3.484 24.4989C3.65011 24.8797 3.85854 25.3665 4.13655 26.071C4.21524 26.2711 4.28511 26.4728 4.35548 26.676C4.3839 26.7581 4.41243 26.8404 4.44163 26.9229C4.5463 27.2164 4.7264 27.48 4.96513 27.6889C5.0665 27.8037 5.20096 27.8874 5.35173 27.9293C5.50545 27.9719 5.66893 27.9692 5.82101 27.9215C5.97309 27.8737 6.10666 27.7832 6.20439 27.6616C6.30019 27.5423 6.35717 27.3986 6.36824 27.2485C6.4304 26.9561 6.40918 26.6529 6.30674 26.371C6.14414 25.9029 5.95893 25.4341 5.74534 24.9756L5.74436 24.9736C5.393 24.2563 5.03584 23.5439 4.66179 22.8312L4.65899 22.8262C4.54948 22.6406 4.40718 22.4746 4.23846 22.3358C4.12893 22.2118 3.97785 22.1283 3.811 22.0994C3.64059 22.07 3.46485 22.0997 3.31513 22.1831C3.1735 22.2608 3.06123 22.3795 2.99456 22.5224Z" fill="#3A3B7B"/>
<path fill-rule="evenodd" clip-rule="evenodd" d="M8.36111 20.7561C7.81018 20.6191 7.23481 20.5992 6.6751 20.6976C6.24158 20.7386 5.8152 20.8345 5.51913 21.0247C5.36855 21.1214 5.2468 21.2457 5.17908 21.4036C5.11098 21.5623 5.10229 21.7439 5.15809 21.9462C5.25998 22.3168 5.39229 22.6772 5.52413 23.0363L5.54549 23.0945L5.546 23.0958C5.94298 24.1392 6.34374 25.1791 6.74815 26.2155C6.79531 26.3788 6.862 26.5363 6.94687 26.6849L6.94846 26.6877C7.06058 26.8723 7.20439 27.0374 7.37381 27.1761C7.45854 27.2523 7.56332 27.3051 7.67694 27.3287C7.79167 27.3524 7.91099 27.3455 8.0219 27.3087C8.13285 27.2718 8.23109 27.2064 8.30596 27.1196C8.37961 27.0343 8.42784 26.9314 8.44556 26.822C8.51865 26.5246 8.49524 26.2128 8.3784 25.9286C8.34194 25.8329 8.31334 25.7352 8.2832 25.6323C8.27315 25.5979 8.26296 25.563 8.25221 25.5275C9.17791 25.1802 10.1629 24.7132 10.5092 23.6268C10.6449 23.2514 10.6562 22.8449 10.5416 22.463C10.4269 22.0807 10.1916 21.7419 9.86806 21.4931C9.42776 21.1449 8.91343 20.8933 8.36111 20.7561ZM6.834 22.0886C6.85223 22.0835 6.8706 22.0788 6.88901 22.0745C7.49167 21.9835 8.10826 22.1047 8.62526 22.4156C8.8531 22.5677 8.94643 22.7366 8.96246 22.8992C8.979 23.0666 8.91558 23.248 8.78818 23.4224C8.54744 23.7518 8.10812 24.0155 7.71129 24.0646C7.42199 23.4251 7.12821 22.7598 6.834 22.0886Z" fill="#3A3B7B"/>
<path d="M12.034 19.5856C12.6901 19.2948 13.5028 19.2445 14.1388 19.449C14.2989 19.4938 14.4379 19.5906 14.5319 19.723C14.6252 19.8545 14.6683 20.013 14.6539 20.1715C14.653 20.2743 14.6267 20.3755 14.5772 20.4668C14.5268 20.5598 14.4539 20.6397 14.3645 20.6999C14.2751 20.76 14.172 20.7987 14.0638 20.8125C13.9556 20.8264 13.8455 20.815 13.7428 20.7793L13.735 20.7766L13.7277 20.7729C13.6751 20.7465 13.6193 20.7267 13.5616 20.7137L13.558 20.713C13.1106 20.5989 12.6886 20.7879 12.5345 21.0201C12.461 21.1308 12.4519 21.2425 12.5131 21.3442C12.5787 21.453 12.7395 21.5752 13.0649 21.6623C13.1544 21.6859 13.2461 21.7086 13.3392 21.7318C13.5965 21.7957 13.8639 21.8621 14.1225 21.9542L14.1235 21.9546C15.3165 22.3902 15.7607 23.2925 15.6087 24.1411C15.4582 24.9804 14.728 25.7441 13.6298 25.9243C13.2302 26.0093 12.8143 25.9927 12.4234 25.8763C12.0315 25.7594 11.6782 25.5462 11.3987 25.2577L11.3914 25.2502C11.3031 25.1415 11.2438 25.0139 11.2175 24.8784C11.1933 24.7561 11.206 24.6298 11.2542 24.5142C11.302 24.3993 11.383 24.2999 11.4874 24.2275C11.5978 24.1454 11.7308 24.0961 11.87 24.0858C12.0088 24.0756 12.1476 24.1045 12.2695 24.169C12.3912 24.2255 12.5043 24.2974 12.606 24.383L12.6079 24.3846C12.7876 24.5424 13.0051 24.5835 13.2136 24.5454C13.4252 24.5068 13.6241 24.3866 13.7521 24.2272C13.8792 24.0688 13.9303 23.8806 13.8697 23.6979C13.8088 23.5139 13.6255 23.3077 13.2229 23.1354C13.1176 23.0925 13.0085 23.0579 12.895 23.0242C12.8644 23.0151 12.8332 23.0061 12.8017 22.9969C12.7178 22.9725 12.6314 22.9473 12.5467 22.9195C12.4884 22.9004 12.4306 22.8824 12.3733 22.8644C12.2166 22.8155 12.064 22.7678 11.917 22.7038C11.5972 22.5992 11.3209 22.3986 11.1292 22.1314C10.9368 21.8632 10.8399 21.5425 10.8531 21.2171C10.8541 20.4243 11.3745 19.878 12.034 19.5856Z" fill="#3A3B7B"/>
<path d="M20.3518 19.5012C20.2246 19.4415 20.0839 19.4132 19.9425 19.4188C19.801 19.4244 19.6632 19.4636 19.5416 19.5331C19.4207 19.6021 19.3194 19.6988 19.2469 19.8144C19.1804 19.9118 19.1344 20.0207 19.1114 20.1351C19.0885 20.2494 19.089 20.3668 19.113 20.4808C19.1367 20.6274 19.163 20.7699 19.1889 20.9104C19.2319 21.1429 19.2736 21.3703 19.3012 21.602L19.3022 21.6079C19.365 21.9714 19.3979 22.339 19.4008 22.7074L19.4011 22.7126C19.4225 23.1105 19.2813 23.5006 19.0077 23.8001L19.0033 23.8055C18.9143 23.915 18.7953 23.9986 18.6595 24.0469C18.5238 24.0952 18.3767 24.1063 18.2348 24.0789C18.0929 24.0516 17.9617 23.9869 17.8559 23.8921C17.7501 23.7973 17.6737 23.6757 17.6356 23.5417C17.5543 23.2592 17.5073 22.9687 17.4953 22.6759L17.6342 20.5535C17.6362 20.5257 17.6386 20.4973 17.641 20.4686C17.6463 20.4041 17.6517 20.3385 17.6539 20.2772C17.6572 20.1871 17.6544 20.0945 17.6325 20.0067C17.6101 19.9171 17.5675 19.8318 17.492 19.7592C17.4172 19.6873 17.3163 19.6343 17.1893 19.5982C16.9596 19.5343 16.7653 19.5364 16.6035 19.6023C16.4415 19.6682 16.3306 19.7906 16.2521 19.932C16.1742 20.0722 16.1241 20.2382 16.0862 20.4044C16.0582 20.5278 16.0356 20.6573 16.0141 20.7806C16.0067 20.8231 15.9995 20.8648 15.9921 20.9053L15.9919 20.9065C15.8771 21.5825 15.843 22.2689 15.8901 22.9524C15.8989 23.3218 15.9791 23.6864 16.1268 24.0276C16.2934 24.4678 16.5952 24.8492 16.9923 25.1215C17.3903 25.3943 17.8652 25.5447 18.3541 25.5526C18.8431 25.5606 19.323 25.4257 19.7304 25.166C20.1371 24.9067 20.4522 24.535 20.6342 24.1001C20.8888 23.5461 21.0083 22.9437 20.9837 22.3386C20.9687 21.8969 20.9437 21.4518 20.9188 21.009C20.9065 20.7917 20.8943 20.575 20.8834 20.3595C20.8779 20.1435 20.8036 19.9343 20.6706 19.7599C20.5883 19.6496 20.4788 19.5607 20.3518 19.5012Z" fill="#3A3B7B"/>
<path d="M24.8544 22.8291C24.8415 22.8449 24.8279 22.8612 24.8137 22.8781C24.7102 22.3052 24.6143 21.7324 24.5183 21.1588C24.4839 20.953 24.4492 20.7463 24.4144 20.5403L24.4105 20.5173L24.3978 20.4974C24.3738 20.46 24.3714 20.4234 24.3714 20.3452V20.3362L24.37 20.3272C24.344 20.1658 24.2679 20.0155 24.1517 19.8962C24.0358 19.7771 23.8852 19.6942 23.7196 19.6583C23.5543 19.6191 23.3806 19.6278 23.2203 19.6831C23.0605 19.7383 22.9212 19.8375 22.8198 19.9682C22.7355 20.0686 22.6663 20.1799 22.6146 20.2988C22.497 20.5549 22.3784 20.8118 22.2595 21.0693L22.2575 21.0737C21.9607 21.7166 21.6618 22.3638 21.3717 23.0161L21.3708 23.0182C21.1927 23.4411 21.0457 23.8868 20.8992 24.3311C20.8699 24.4197 20.8406 24.5084 20.8111 24.5968C20.7582 24.737 20.7351 24.8859 20.7431 25.0348C20.7334 25.1681 20.7667 25.301 20.8383 25.4157C20.9114 25.5326 21.0209 25.6247 21.1514 25.6788C21.2896 25.737 21.4442 25.7494 21.5906 25.7139C21.7367 25.6786 21.8664 25.5976 21.9594 25.4839C22.0781 25.3437 22.1802 25.1909 22.2635 25.0289C22.5093 24.5464 22.7442 24.058 22.978 23.5717C23.0685 23.3836 23.1564 23.2151 23.2564 23.0316C23.2633 23.0543 23.2703 23.0763 23.2776 23.0984C23.3824 23.5414 23.5593 23.9657 23.8018 24.3557C23.8477 24.4383 23.9117 24.5105 23.9892 24.5674C24.0678 24.6249 24.1584 24.6653 24.2548 24.6858C24.3512 24.7063 24.4511 24.7064 24.5476 24.6861C24.6439 24.6658 24.7348 24.6254 24.8134 24.5681L24.9689 24.4564L26.1757 23.4807L26.1044 23.9173C26.0064 24.5173 25.9092 25.1123 25.8059 25.7075C25.7383 25.9713 25.7384 26.2468 25.8062 26.5105C25.8356 26.6589 25.9103 26.7955 26.021 26.903C26.1326 27.0113 26.2755 27.0849 26.4313 27.1143C26.587 27.1436 26.7483 27.1273 26.8943 27.0676C27.0381 27.0087 27.1605 26.9102 27.246 26.7848C27.445 26.5478 27.5689 26.2609 27.6029 25.9583C27.6541 25.5309 27.712 25.0977 27.7699 24.6646C27.8366 24.1654 27.9033 23.6663 27.9596 23.1769L27.9598 23.1754C28.014 22.6396 28.0402 22.1016 28.0384 21.5632C28.0502 21.3931 28.0061 21.2237 27.9121 21.0788C27.8177 20.9335 27.678 20.8205 27.5128 20.7558C27.341 20.6809 27.1487 20.6608 26.9641 20.6987C26.7808 20.7363 26.6148 20.8291 26.4903 20.9635C26.2677 21.1611 26.0589 21.3725 25.8652 21.5965L25.8639 21.598C25.6524 21.8509 25.4424 22.1088 25.2337 22.365C25.1068 22.5207 24.9803 22.6761 24.8544 22.8291Z" fill="#3A3B7B"/>
</g>
<defs>
<clipPath id="clip0_211_2521">
<rect width="32.7153" height="20.186" fill="white" transform="translate(-0.00732422 7.77344)"/>
</clipPath>
</defs>
</svg>
