<svg width="38" height="35" viewBox="0 0 38 35" fill="none" xmlns="http://www.w3.org/2000/svg">
<rect x="0.893005" y="0.919434" width="33.4113" height="33.4113" rx="5.56856" fill="#F5F7FA"/>
<g clip-path="url(#clip0_211_2541)">
<path d="M9.48468 10.5577C8.07115 10.5577 6.71553 11.1193 5.71602 12.1188L2.45404 15.3808C1.45452 16.3803 0.893005 17.7359 0.893005 19.1494C0.893005 22.093 3.2792 24.4791 6.22272 24.4791C7.63625 24.4791 8.99187 23.9176 9.99138 22.9181L12.2477 20.6617C12.2477 20.6617 12.2478 20.6618 12.2477 20.6617L18.8219 14.0876C19.2993 13.6102 19.9467 13.342 20.6218 13.342C21.752 13.342 22.7102 14.0786 23.0424 15.098L25.1172 13.0232C24.1707 11.5407 22.5111 10.5577 20.6218 10.5577C19.2083 10.5577 17.8526 11.1193 16.8531 12.1188L8.02261 20.9493C7.54525 21.4267 6.89781 21.6949 6.22272 21.6949C4.81691 21.6949 3.67728 20.5552 3.67728 19.1494C3.67728 18.4743 3.94546 17.8269 4.42282 17.3495L7.68479 14.0876C8.16215 13.6102 8.80959 13.342 9.48468 13.342C10.615 13.342 11.5731 14.0787 11.9053 15.0981L13.9802 13.0232C13.0337 11.5408 11.374 10.5577 9.48468 10.5577Z" fill="#394149"/>
<path d="M19.1598 20.9493C18.6824 21.4267 18.035 21.6949 17.3599 21.6949C16.2298 21.6949 15.2717 20.9584 14.9394 19.9392L12.8646 22.014C13.8112 23.4962 15.4708 24.4791 17.3599 24.4791C18.7734 24.4791 20.129 23.9176 21.1285 22.9181L29.9591 14.0876C30.4364 13.6102 31.0839 13.342 31.759 13.342C33.1648 13.342 34.3044 14.4816 34.3044 15.8875C34.3044 16.5625 34.0362 17.21 33.5589 17.6873L30.2969 20.9493C29.8195 21.4267 29.1721 21.6949 28.497 21.6949C27.3668 21.6949 26.4087 20.9583 26.0764 19.939L24.0016 22.0138C24.9482 23.4962 26.6078 24.4791 28.497 24.4791C29.9105 24.4791 31.2661 23.9176 32.2657 22.9181L35.5276 19.6561C36.5271 18.6566 37.0887 17.301 37.0887 15.8875C37.0887 12.9439 34.7025 10.5577 31.759 10.5577C30.3454 10.5577 28.9898 11.1193 27.9903 12.1188L19.1598 20.9493Z" fill="#394149"/>
</g>
<defs>
<clipPath id="clip0_211_2541">
<rect width="36.1956" height="13.9214" fill="white" transform="translate(0.893005 10.5577)"/>
</clipPath>
</defs>
</svg>
