<svg width="309" height="303" viewBox="0 0 309 303" fill="none" xmlns="http://www.w3.org/2000/svg">
<path d="M262.909 301.981C262.909 302.081 212.953 302.168 151.351 302.168C89.7479 302.168 39.7708 302.081 39.7708 301.981C39.7708 301.88 89.7191 301.793 151.351 301.793C212.982 301.793 262.909 301.887 262.909 301.981Z" fill="#263238"/>
<path d="M214.234 213.911C203.119 206.148 200.601 191.739 201.04 178.782C201.112 176.624 200.874 174.336 201.903 172.444C202.932 170.552 205.335 169.25 207.27 170.156C208.874 170.912 209.572 172.782 210.471 174.329C211.671 176.389 213.43 178.068 215.543 179.171C216.917 179.89 218.622 180.322 219.982 179.573C221.852 178.545 222.068 175.976 222.054 173.818C222.054 169.804 222.03 165.794 221.982 161.79C221.853 159.639 222.071 157.482 222.629 155.401C223.298 153.358 224.788 151.466 226.823 150.891C228.859 150.315 231.399 151.502 231.859 153.603C231.939 154.493 231.96 155.386 231.924 156.279C231.982 157.178 232.399 158.164 233.241 158.437C234.082 158.711 234.96 158.085 235.607 157.452C237.823 155.293 239.334 152.481 240.737 149.704C242.14 146.927 243.514 144.071 245.528 141.704C247.542 139.337 250.326 137.459 253.441 137.279C256.556 137.1 259.801 139.013 260.578 142.035C261.355 145.056 259.592 148.143 257.7 150.596C254.845 154.237 251.48 157.448 247.708 160.128C246.972 160.53 246.384 161.158 246.032 161.919C245.564 163.358 246.924 164.797 248.341 165.25C249.945 165.782 251.686 165.617 253.377 165.818C255.067 166.02 256.866 166.754 257.506 168.336C258.384 170.538 256.542 172.84 254.736 174.35C251.111 177.372 246.993 179.749 242.564 181.379C240.981 181.955 239.32 182.465 238.039 183.573C236.758 184.681 235.996 186.616 236.766 188.134C237.535 189.652 239.514 190.134 241.176 189.825C242.837 189.516 244.312 188.624 245.895 188.026C248.852 186.911 252.665 187.113 254.528 189.667C255.105 190.546 255.47 191.548 255.595 192.593C255.72 193.638 255.601 194.697 255.247 195.688C254.527 197.66 253.419 199.468 251.988 201.004C247.276 206.634 241.154 210.912 234.248 213.4C227.392 215.774 221.039 216.421 214.227 213.925" fill="#4CAF4F"/>
<path d="M257.413 139.056C257.413 139.056 257.348 139.128 257.204 139.258L256.564 139.826C256.003 140.33 255.175 141.064 254.132 142.035C251.175 144.781 248.428 147.746 245.917 150.905C244.312 152.898 242.65 155.157 240.881 157.61C239.111 160.063 237.284 162.71 235.471 165.523C233.538 168.49 231.768 171.559 230.169 174.717C229.334 176.365 228.6 178.084 227.845 179.84L225.615 185.199C222.675 191.95 220.115 198.86 217.946 205.896C216.199 211.654 214.995 217.562 214.349 223.543C213.931 227.58 213.863 231.646 214.148 235.694C214.263 237.133 214.371 238.234 214.471 238.982C214.514 239.342 214.543 239.629 214.572 239.838V240.133C214.541 240.039 214.519 239.943 214.507 239.845C214.471 239.637 214.428 239.356 214.371 238.996C214.241 238.277 214.104 237.14 213.975 235.701C213.628 231.645 213.652 227.566 214.047 223.515C214.652 217.507 215.83 211.572 217.565 205.789C219.715 198.732 222.269 191.805 225.212 185.041L227.5 179.703C228.255 177.955 228.996 176.221 229.838 174.566C231.448 171.398 233.233 168.322 235.183 165.351C237.025 162.473 238.881 159.869 240.629 157.437C242.377 155.006 244.068 152.732 245.665 150.747C248.202 147.596 250.985 144.652 253.988 141.941C255.053 140.984 255.902 140.265 256.477 139.783L257.146 139.243C257.228 139.172 257.318 139.109 257.413 139.056Z" fill="#263238"/>
<path d="M229.931 174.552C229.83 174.256 229.76 173.949 229.723 173.638C229.608 173.041 229.478 172.199 229.327 171.106C229.018 168.948 228.701 165.991 228.363 162.718C228.025 159.444 227.644 156.48 227.327 154.344C227.162 153.279 227.018 152.423 226.917 151.826C226.838 151.52 226.797 151.206 226.795 150.891C226.919 151.179 227.008 151.481 227.061 151.79C227.219 152.38 227.399 153.229 227.6 154.301C228.01 156.459 228.413 159.394 228.751 162.674C229.09 165.955 229.377 168.833 229.6 171.07C229.708 172.077 229.802 172.933 229.874 173.617C229.93 173.925 229.949 174.239 229.931 174.552Z" fill="#263238"/>
<path d="M257.614 169.387C257.264 169.463 256.907 169.506 256.549 169.516C255.83 169.581 254.808 169.667 253.542 169.811C251.01 170.084 247.528 170.588 243.708 171.307C239.888 172.027 236.456 172.84 233.989 173.466C232.759 173.782 231.766 174.07 231.111 174.264C230.762 174.388 230.4 174.475 230.032 174.523C230.364 174.356 230.711 174.219 231.068 174.113C231.744 173.876 232.723 173.545 233.946 173.192C236.399 172.473 239.83 171.617 243.665 170.883C246.913 170.262 250.19 169.806 253.485 169.516C254.758 169.408 255.787 169.365 256.506 169.351C256.876 169.326 257.247 169.338 257.614 169.387Z" fill="#263238"/>
<path d="M217.917 205.285C217.84 205.181 217.778 205.067 217.73 204.947L217.255 203.947C216.845 203.076 216.291 201.789 215.629 200.213C214.291 197.048 212.586 192.616 210.773 187.696C208.96 182.775 207.291 178.343 206.025 175.142C205.407 173.588 204.896 172.315 204.515 171.365L204.112 170.336C204.056 170.218 204.017 170.092 203.997 169.962C204.073 170.066 204.136 170.18 204.184 170.3L204.658 171.3C205.061 172.171 205.622 173.458 206.284 175.034C207.622 178.199 209.327 182.631 211.14 187.552C212.953 192.472 214.622 196.904 215.888 200.105C216.507 201.659 217.018 202.933 217.392 203.882C217.557 204.292 217.694 204.602 217.802 204.911C217.858 205.03 217.897 205.155 217.917 205.285Z" fill="#263238"/>
<path d="M254.664 193.436C254.549 193.502 254.426 193.553 254.297 193.587L253.233 193.947L249.298 195.22C245.974 196.3 241.384 197.839 236.348 199.537C231.312 201.235 226.701 202.745 223.356 203.753C221.687 204.263 220.327 204.652 219.385 204.911L218.298 205.191C218.172 205.231 218.042 205.258 217.91 205.271C218.025 205.204 218.148 205.154 218.277 205.119L219.342 204.76L223.277 203.486C226.6 202.407 231.19 200.868 236.226 199.17C241.262 197.472 245.866 195.961 249.211 194.954C250.887 194.443 252.24 194.055 253.19 193.796L254.276 193.515C254.402 193.475 254.532 193.449 254.664 193.436Z" fill="#263238"/>
<path d="M239.672 18.9302L235.967 20.2539L234.377 15.4123C231.456 6.48448 222.147 1.74359 213.594 4.75791C205.04 7.77222 200.486 17.5633 203.407 26.4912L204.997 31.3328L201.277 32.6637C199.859 33.2138 198.707 34.2892 198.062 35.6666C197.416 37.0439 197.326 38.6171 197.81 40.0592L208.119 71.562C208.333 72.2758 208.688 72.9394 209.164 73.5133C209.639 74.0872 210.225 74.5596 210.887 74.9025C211.549 75.2454 212.272 75.4518 213.015 75.5095C213.758 75.5672 214.505 75.4749 215.212 75.2381L253.607 61.5047C255.044 60.9555 256.212 59.8705 256.865 58.4778C257.519 57.0852 257.607 55.4934 257.11 54.0372L246.794 22.5344C246.575 21.8225 246.214 21.1622 245.733 20.5927C245.253 20.0233 244.663 19.5565 243.998 19.2201C243.334 18.8837 242.608 18.6847 241.865 18.6349C241.121 18.5851 240.376 18.6855 239.672 18.9302ZM210.407 23.9661C209.619 21.6447 209.76 19.1086 210.801 16.8892C211.842 14.6697 213.701 12.9391 215.989 12.0599C217.119 11.6733 218.315 11.5183 219.506 11.6041C220.697 11.6898 221.859 12.0147 222.922 12.5592C223.985 13.1037 224.927 13.8567 225.693 14.7734C226.458 15.69 227.031 16.7514 227.377 17.8943L228.96 22.7359L211.989 28.8077L210.407 23.9661ZM231.989 51.9222L234.622 59.9651C234.67 60.1264 234.654 60.3001 234.578 60.4502C234.502 60.6002 234.371 60.7151 234.212 60.7709L230.521 62.0874C230.374 62.1281 230.217 62.1104 230.083 62.038C229.949 61.9656 229.848 61.8441 229.802 61.6989L227.147 53.6919C225.683 53.6122 224.279 53.0872 223.122 52.1872C221.965 51.2872 221.11 50.0552 220.672 48.6561C220.047 46.8064 220.161 44.7865 220.991 43.0191C221.821 41.2517 223.303 39.8739 225.126 39.1743C226.026 38.8668 226.978 38.7436 227.927 38.8121C228.876 38.8806 229.801 39.1395 230.648 39.5731C231.494 40.0068 232.245 40.6065 232.854 41.3364C233.464 42.0663 233.921 42.9115 234.197 43.8217C234.66 45.2429 234.698 46.7682 234.307 48.2109C233.916 49.6535 233.113 50.9508 231.996 51.9438L231.989 51.9222Z" fill="#4CAF4F"/>
<path d="M235.802 20.1676C235.802 20.2683 228.931 22.851 220.385 25.9228C211.838 28.9947 204.867 31.4623 204.831 31.3903C204.795 31.3184 211.702 28.7141 220.255 25.6351C228.809 22.556 235.766 20.0741 235.802 20.1676Z" fill="#263238"/>
<path d="M243.96 21.4912C243.991 21.5536 244.018 21.6186 244.039 21.6854C244.096 21.8293 244.161 22.0164 244.247 22.2466C244.434 22.7718 244.693 23.4984 245.017 24.4048L247.78 32.4478C248.931 35.8578 250.305 39.9008 251.83 44.3899C252.549 46.6417 253.398 48.9869 254.19 51.4545C254.613 52.7261 254.796 54.0654 254.729 55.404C254.668 56.1002 254.47 56.7774 254.146 57.3968C253.801 58.0141 253.339 58.5588 252.787 59.001C251.675 59.8124 250.442 60.4414 249.132 60.8643L245.427 62.1952L238.413 64.7059L226.536 68.9361L218.514 71.7561L216.356 72.4755L215.78 72.6626C215.719 72.6899 215.653 72.707 215.586 72.7129C215.586 72.7129 215.644 72.7129 215.766 72.6266L216.327 72.4036L218.485 71.5907L226.464 68.6555L238.319 64.339L245.319 61.8067L249.024 60.4686C250.296 60.0629 251.494 59.453 252.571 58.6629C253.085 58.2526 253.515 57.7469 253.837 57.1738C254.142 56.601 254.325 55.9716 254.377 55.3249C254.443 54.0351 254.267 52.7444 253.859 51.5192C253.082 49.0732 252.262 46.7064 251.521 44.4547C250.024 39.9584 248.643 35.9009 247.549 32.4909C246.456 29.0809 245.535 26.34 244.902 24.412C244.6 23.4696 244.37 22.7358 244.183 22.2034L244.01 21.6279C243.988 21.5843 243.971 21.5385 243.96 21.4912Z" fill="#263238"/>
<path d="M223.701 11.5708C223.701 11.5708 223.32 11.3837 222.615 11.0959C221.61 10.7098 220.547 10.4958 219.471 10.4629C217.876 10.4082 216.289 10.7079 214.824 11.3405C213.042 12.1283 211.519 13.4024 210.428 15.0167C209.33 16.6264 208.742 18.5287 208.738 20.477C208.753 22.0739 208.995 23.6605 209.457 25.1891C209.831 26.4984 210.22 27.5416 210.479 28.2682C210.631 28.6372 210.756 29.0172 210.853 29.4048C210.648 29.0598 210.477 28.696 210.342 28.3185C210.047 27.5991 209.622 26.5776 209.205 25.2611C208.693 23.7164 208.414 22.104 208.378 20.477C208.359 18.4551 208.961 16.4761 210.104 14.8081C211.233 13.1348 212.819 11.8213 214.673 11.024C216.184 10.3879 217.82 10.1073 219.457 10.2039C220.556 10.2599 221.636 10.5159 222.644 10.9593C222.913 11.0835 223.173 11.2278 223.421 11.3909C223.523 11.4359 223.618 11.4965 223.701 11.5708Z" fill="#263238"/>
<path d="M224.032 39.721C224.147 39.6514 224.267 39.5913 224.392 39.5411C224.752 39.3786 225.125 39.2463 225.507 39.1455C226.113 38.9665 226.739 38.8602 227.37 38.8289C228.229 38.7828 229.088 38.9125 229.895 39.2102C231.737 39.8577 233.428 41.7353 234.262 44.2461C234.662 45.5934 234.662 47.0281 234.262 48.3755C233.818 49.8378 233.023 51.1692 231.946 52.253L231.989 52.0588C232.946 54.6846 233.989 57.5335 235.068 60.5046L235.133 60.6845L234.953 60.7492L233.305 61.296L229.708 62.4974L229.528 62.5549L229.471 62.3751C228.485 59.3968 227.406 56.6198 226.593 53.8933L226.751 54.0156C225.345 53.8988 224.004 53.3709 222.895 52.4976C221.892 51.7251 221.07 50.7431 220.485 49.62C219.958 48.6241 219.695 47.5093 219.723 46.3827C219.756 45.2312 220.044 44.1014 220.565 43.0741C221.086 42.0468 221.828 41.1474 222.737 40.4404C223.112 40.1365 223.532 39.8937 223.982 39.721C223.575 39.9621 223.182 40.2238 222.802 40.5051C221.803 41.3503 221.038 42.4378 220.579 43.6633C220.185 44.5875 220.001 45.5874 220.04 46.5911C220.078 47.5949 220.339 48.5777 220.802 49.4689C221.377 50.5493 222.179 51.4919 223.154 52.2315C224.212 53.0615 225.491 53.5619 226.831 53.6703H226.953L226.989 53.7782C227.78 56.4544 228.867 59.2529 229.867 62.2456L229.629 62.1305L233.226 60.9291L234.866 60.3751L234.751 60.6197C233.679 57.6486 232.643 54.7926 231.694 52.1667V52.0588L231.78 51.9725C232.826 50.9336 233.606 49.6577 234.053 48.2532C234.435 46.9643 234.435 45.5925 234.053 44.3036C233.269 41.8864 231.651 40.0519 229.895 39.4045C229.118 39.1048 228.289 38.9654 227.457 38.9944C226.835 39.0086 226.217 39.0931 225.615 39.2462C224.543 39.5124 224.039 39.757 224.032 39.721Z" fill="#263238"/>
<path d="M201.795 247.442L129.934 247.111C125.784 247.088 121.813 245.419 118.892 242.471C115.972 239.522 114.342 235.535 114.359 231.385L115.121 51.2385C115.13 49.1825 115.543 47.1483 116.339 45.2522C117.134 43.3561 118.295 41.6353 119.755 40.1882C121.216 38.7411 122.947 37.5959 124.85 36.8183C126.754 36.0407 128.792 35.6458 130.848 35.6562L202.702 35.9871C206.852 36.0081 210.824 37.6753 213.745 40.6225C216.667 43.5698 218.299 47.5562 218.284 51.7062L217.522 231.845C217.513 233.902 217.1 235.937 216.305 237.834C215.51 239.731 214.349 241.453 212.889 242.901C211.428 244.349 209.697 245.496 207.794 246.275C205.89 247.054 203.852 247.451 201.795 247.442Z" fill="#455A64"/>
<path d="M202.594 42.1813H188.666C188.212 42.1897 187.764 42.2876 187.347 42.4693C186.93 42.6511 186.554 42.9131 186.238 43.2404C185.923 43.5678 185.675 43.9541 185.509 44.3772C185.343 44.8003 185.262 45.252 185.271 45.7064V48.2315C185.279 48.6856 185.198 49.1369 185.032 49.5596C184.866 49.9823 184.618 50.3681 184.303 50.6949C183.987 51.0217 183.611 51.283 183.194 51.464C182.777 51.6449 182.329 51.7419 181.875 51.7494L154.725 51.6271C153.806 51.6026 152.935 51.2146 152.302 50.5483C151.67 49.8819 151.328 48.9918 151.351 48.0733V45.5481C151.374 44.6308 151.033 43.7417 150.402 43.0756C149.771 42.4095 148.901 42.0206 147.984 41.9943H143.085L130.891 41.9367C127.99 41.9194 125.201 43.0522 123.134 45.0868C121.067 47.1215 119.891 49.8923 119.862 52.7926L119.143 228.63C119.136 230.069 119.413 231.495 119.958 232.827C120.502 234.158 121.304 235.37 122.316 236.392C123.329 237.414 124.533 238.227 125.86 238.783C127.187 239.34 128.61 239.63 130.049 239.637L201.76 239.968C203.199 239.974 204.626 239.697 205.959 239.152C207.292 238.608 208.504 237.806 209.527 236.792C210.55 235.779 211.363 234.574 211.92 233.246C212.477 231.918 212.767 230.494 212.774 229.054L213.493 53.217C213.51 50.3086 212.372 47.5123 210.328 45.4429C208.284 43.3735 205.503 42.2003 202.594 42.1813Z" fill="white"/>
<path d="M192.947 216.508L139.624 216.278C139.07 216.278 138.624 215.673 138.631 214.939L138.689 200.99C138.689 200.271 139.142 199.652 139.696 199.652L193.019 199.897C193.326 199.95 193.6 200.119 193.785 200.37C193.97 200.621 194.051 200.933 194.011 201.242L193.961 215.177C193.961 215.918 193.501 216.515 192.947 216.508Z" fill="#4CAF4F"/>
<path d="M155.836 209.831C155.542 209.831 155.259 209.783 154.987 209.689C154.719 209.591 154.512 209.466 154.365 209.316L154.529 208.993C154.668 209.129 154.855 209.244 155.089 209.338C155.327 209.429 155.576 209.474 155.836 209.474C156.085 209.474 156.287 209.444 156.442 209.383C156.6 209.319 156.715 209.234 156.787 209.129C156.863 209.023 156.9 208.906 156.9 208.778C156.9 208.623 156.855 208.499 156.764 208.404C156.678 208.31 156.563 208.236 156.419 208.184C156.276 208.127 156.117 208.078 155.944 208.036C155.77 207.995 155.597 207.951 155.423 207.906C155.249 207.857 155.089 207.793 154.942 207.714C154.799 207.635 154.682 207.531 154.591 207.402C154.504 207.27 154.461 207.099 154.461 206.887C154.461 206.691 154.512 206.512 154.614 206.35C154.719 206.184 154.88 206.052 155.095 205.954C155.31 205.852 155.585 205.801 155.921 205.801C156.144 205.801 156.364 205.833 156.583 205.897C156.802 205.957 156.991 206.042 157.149 206.152L157.008 206.486C156.838 206.372 156.657 206.289 156.464 206.237C156.276 206.184 156.093 206.157 155.915 206.157C155.678 206.157 155.482 206.189 155.327 206.254C155.172 206.318 155.057 206.404 154.982 206.514C154.91 206.62 154.874 206.74 154.874 206.876C154.874 207.031 154.917 207.155 155.004 207.25C155.095 207.344 155.212 207.418 155.355 207.47C155.502 207.523 155.663 207.57 155.836 207.612C156.01 207.653 156.181 207.699 156.351 207.748C156.525 207.797 156.683 207.861 156.827 207.94C156.974 208.016 157.091 208.118 157.178 208.246C157.268 208.374 157.313 208.542 157.313 208.75C157.313 208.942 157.261 209.121 157.155 209.287C157.049 209.449 156.887 209.582 156.668 209.683C156.453 209.782 156.176 209.831 155.836 209.831ZM158.226 209.797V205.835H158.645V209.797H158.226ZM159.934 209.797V205.835H160.279L163.013 209.276H162.832V205.835H163.245V209.797H162.9L160.172 206.355H160.353V209.797H159.934ZM166.276 209.831C165.974 209.831 165.695 209.782 165.438 209.683C165.185 209.582 164.965 209.44 164.776 209.259C164.591 209.078 164.446 208.865 164.34 208.619C164.238 208.374 164.187 208.106 164.187 207.816C164.187 207.525 164.238 207.257 164.34 207.012C164.446 206.767 164.593 206.553 164.782 206.372C164.97 206.191 165.191 206.052 165.444 205.954C165.7 205.852 165.98 205.801 166.281 205.801C166.583 205.801 166.859 205.848 167.108 205.942C167.361 206.037 167.576 206.18 167.753 206.372L167.493 206.638C167.327 206.472 167.144 206.354 166.944 206.282C166.744 206.21 166.529 206.174 166.298 206.174C166.053 206.174 165.827 206.216 165.619 206.299C165.416 206.378 165.236 206.493 165.082 206.644C164.931 206.791 164.812 206.965 164.725 207.165C164.642 207.361 164.6 207.578 164.6 207.816C164.6 208.05 164.642 208.267 164.725 208.467C164.812 208.667 164.931 208.842 165.082 208.993C165.236 209.14 165.416 209.255 165.619 209.338C165.827 209.417 166.051 209.457 166.293 209.457C166.519 209.457 166.732 209.423 166.932 209.355C167.136 209.287 167.323 209.172 167.493 209.01L167.73 209.327C167.542 209.493 167.321 209.619 167.068 209.706C166.815 209.789 166.551 209.831 166.276 209.831ZM167.329 209.276V207.816H167.73V209.327L167.329 209.276ZM171.993 209.831C171.488 209.831 171.09 209.685 170.799 209.395C170.508 209.104 170.363 208.674 170.363 208.104V205.835H170.782V208.087C170.782 208.555 170.888 208.9 171.099 209.123C171.31 209.346 171.608 209.457 171.993 209.457C172.382 209.457 172.682 209.346 172.893 209.123C173.104 208.9 173.21 208.555 173.21 208.087V205.835H173.618V208.104C173.618 208.674 173.472 209.104 173.182 209.395C172.895 209.685 172.499 209.831 171.993 209.831ZM174.88 209.797V205.835H176.363C176.698 205.835 176.987 205.889 177.229 205.999C177.47 206.104 177.655 206.259 177.783 206.463C177.915 206.663 177.981 206.906 177.981 207.193C177.981 207.472 177.915 207.714 177.783 207.918C177.655 208.118 177.47 208.272 177.229 208.382C176.987 208.491 176.698 208.546 176.363 208.546H175.112L175.299 208.348V209.797H174.88ZM175.299 208.382L175.112 208.178H176.351C176.748 208.178 177.048 208.093 177.251 207.923C177.459 207.75 177.563 207.506 177.563 207.193C177.563 206.876 177.459 206.631 177.251 206.457C177.048 206.284 176.748 206.197 176.351 206.197H175.112L175.299 205.999V208.382Z" fill="#E8E8E3"/>
<path d="M150.26 93.8706L131.757 93.7866L131.742 97.1822L150.245 97.2661L150.26 93.8706Z" fill="#4CAF4F"/>
<path opacity="0.1" d="M150.26 93.8706L131.757 93.7866L131.742 97.1822L150.245 97.2661L150.26 93.8706Z" fill="black"/>
<path d="M204.5 114.719C204.646 114.704 204.788 114.67 204.925 114.618C205.124 114.54 205.297 114.408 205.424 114.236C205.552 114.064 205.628 113.86 205.644 113.647C205.644 112.503 205.644 110.834 205.644 108.69C205.644 107.618 205.644 106.417 205.644 105.093C205.644 104.77 205.644 104.431 205.644 104.093C205.691 103.765 205.62 103.431 205.443 103.151C205.344 103.017 205.215 102.907 205.066 102.831C204.918 102.755 204.754 102.714 204.587 102.712H203.464H193.069L132.898 102.489C132.744 102.486 132.592 102.521 132.454 102.59C132.316 102.659 132.197 102.76 132.107 102.885C131.933 103.166 131.866 103.501 131.92 103.827C131.92 104.547 131.92 105.266 131.92 105.985C131.92 107.424 131.92 108.863 131.92 110.302C131.92 111.021 131.92 111.741 131.92 112.46C131.89 112.795 131.89 113.132 131.92 113.467C131.957 113.611 132.028 113.744 132.125 113.856C132.222 113.968 132.344 114.057 132.481 114.115C132.622 114.171 132.774 114.198 132.927 114.194H136.588L152.566 114.28L179.616 114.446L197.853 114.59L202.81 114.647H204.098C204.392 114.647 204.536 114.647 204.536 114.647H204.098H202.81H197.853H179.616L152.566 114.561L136.588 114.496H132.927C132.725 114.504 132.524 114.47 132.337 114.395C132.147 114.314 131.979 114.191 131.844 114.036C131.71 113.88 131.612 113.695 131.56 113.496C131.518 113.307 131.504 113.113 131.517 112.92V112.388C131.517 111.669 131.517 110.949 131.517 110.23C131.517 108.791 131.517 107.352 131.517 105.913C131.517 105.194 131.517 104.475 131.517 103.755C131.503 103.564 131.503 103.371 131.517 103.18C131.544 102.968 131.625 102.767 131.754 102.597C131.878 102.423 132.042 102.282 132.233 102.186C132.423 102.089 132.634 102.04 132.848 102.043L193.019 102.374L203.414 102.446H204.536C204.734 102.446 204.929 102.494 205.104 102.585C205.28 102.677 205.43 102.809 205.544 102.971C205.746 103.284 205.828 103.66 205.774 104.029C205.774 104.367 205.774 104.705 205.774 105.029C205.774 106.338 205.774 107.539 205.774 108.626C205.774 110.784 205.723 112.438 205.709 113.59C205.691 113.811 205.611 114.023 205.477 114.2C205.343 114.377 205.162 114.512 204.954 114.59C204.817 114.674 204.661 114.719 204.5 114.719Z" fill="#E0E0E0"/>
<path d="M171.156 106.1H137.315V109.273H171.156V106.1Z" fill="#4CAF4F"/>
<path opacity="0.2" d="M171.156 106.1H137.315V109.273H171.156V106.1Z" fill="white"/>
<path d="M150.134 124.847L131.631 124.763L131.615 128.159L150.118 128.243L150.134 124.847Z" fill="#4CAF4F"/>
<path opacity="0.1" d="M150.134 124.847L131.631 124.763L131.615 128.159L150.118 128.243L150.134 124.847Z" fill="black"/>
<path d="M204.033 145.697C204.178 145.679 204.322 145.652 204.464 145.618C204.665 145.554 204.85 145.447 205.007 145.306C205.163 145.164 205.287 144.991 205.371 144.797C205.484 144.507 205.529 144.194 205.5 143.884C205.5 143.538 205.5 143.164 205.5 142.747C205.5 141.913 205.5 140.963 205.5 139.869V135.301C205.535 134.97 205.462 134.637 205.292 134.352C205.114 134.058 204.835 133.841 204.508 133.74C204.149 133.676 203.784 133.657 203.421 133.683H193.069L133.107 133.46C132.784 133.46 132.473 133.578 132.231 133.791C131.988 134.004 131.832 134.298 131.79 134.618C131.79 135.301 131.79 136.057 131.79 136.776C131.79 138.215 131.79 139.654 131.79 141.092C131.79 141.812 131.79 142.531 131.79 143.251C131.763 143.587 131.778 143.925 131.833 144.258C131.923 144.55 132.108 144.803 132.358 144.977C132.624 145.146 132.936 145.226 133.25 145.207H134.25H136.329L152.25 145.287L179.206 145.452L197.378 145.596L202.321 145.653H197.378H179.206L152.236 145.625L136.315 145.567H133.186C132.797 145.59 132.41 145.487 132.085 145.272C131.758 145.045 131.519 144.713 131.409 144.33C131.344 143.964 131.325 143.592 131.351 143.222C131.351 142.502 131.351 141.783 131.351 141.064C131.351 139.625 131.351 138.186 131.351 136.747C131.351 136.028 131.351 135.308 131.351 134.589C131.404 134.178 131.604 133.8 131.915 133.525C132.227 133.251 132.627 133.1 133.042 133.1L193.004 133.431L203.357 133.51C203.742 133.486 204.129 133.513 204.508 133.589C204.881 133.711 205.197 133.967 205.392 134.308C205.579 134.625 205.659 134.993 205.623 135.359C205.623 135.697 205.623 136.028 205.623 136.359C205.623 137.661 205.623 138.855 205.623 139.956C205.623 141.056 205.623 141.985 205.623 142.833C205.623 143.243 205.623 143.625 205.623 143.977C205.649 144.299 205.597 144.622 205.472 144.92C205.378 145.118 205.243 145.294 205.076 145.436C204.908 145.577 204.712 145.681 204.5 145.74C204.343 145.753 204.185 145.738 204.033 145.697Z" fill="#E0E0E0"/>
<path d="M149.994 157.169L131.491 157.085L131.476 160.481L149.979 160.565L149.994 157.169Z" fill="#4CAF4F"/>
<path opacity="0.1" d="M149.994 157.169L131.491 157.085L131.476 160.481L149.979 160.565L149.994 157.169Z" fill="black"/>
<path d="M203.889 178.005C204.034 177.988 204.179 177.961 204.321 177.926C204.521 177.862 204.705 177.757 204.861 177.617C205.017 177.477 205.142 177.305 205.227 177.113C205.34 176.822 205.384 176.51 205.357 176.199C205.357 175.847 205.357 175.48 205.357 175.055C205.357 174.228 205.357 173.271 205.357 172.178V167.61C205.391 167.279 205.318 166.946 205.148 166.66C204.966 166.372 204.688 166.158 204.364 166.056C204.006 165.989 203.641 165.967 203.277 165.991H192.925L132.963 165.768C132.64 165.769 132.329 165.887 132.087 166.1C131.845 166.313 131.688 166.606 131.646 166.926C131.646 167.646 131.646 168.365 131.646 169.084C131.646 170.523 131.646 171.962 131.646 173.401C131.646 174.12 131.646 174.84 131.646 175.559C131.619 175.893 131.634 176.229 131.689 176.559C131.776 176.853 131.961 177.107 132.215 177.278C132.479 177.451 132.792 177.532 133.107 177.509H136.236L152.156 177.595L179.113 177.76L197.285 177.904L202.227 177.962H197.285H179.113L152.156 177.883L136.236 177.818H133.107C132.717 177.844 132.33 177.741 132.006 177.523C131.679 177.296 131.44 176.963 131.33 176.581C131.265 176.215 131.246 175.843 131.272 175.473C131.272 174.753 131.272 174.034 131.272 173.314C131.272 171.876 131.272 170.437 131.272 168.998C131.272 168.279 131.272 167.559 131.272 166.804C131.323 166.393 131.522 166.015 131.832 165.741C132.142 165.467 132.542 165.315 132.956 165.315L192.918 165.646L203.27 165.725C203.656 165.701 204.043 165.728 204.421 165.804C204.795 165.926 205.11 166.182 205.306 166.523C205.492 166.84 205.573 167.208 205.536 167.574C205.536 167.912 205.536 168.25 205.536 168.574C205.536 169.876 205.536 171.07 205.536 172.171C205.536 173.271 205.536 174.199 205.536 175.048C205.536 175.458 205.536 175.84 205.536 176.192C205.564 176.514 205.512 176.838 205.385 177.135C205.292 177.333 205.157 177.509 204.989 177.651C204.822 177.792 204.625 177.896 204.414 177.955C204.245 178.012 204.066 178.03 203.889 178.005Z" fill="#E0E0E0"/>
<path d="M170.434 137.975L136.593 137.822L136.579 140.994L170.419 141.148L170.434 137.975Z" fill="#4CAF4F"/>
<path opacity="0.2" d="M170.434 137.975L136.593 137.822L136.579 140.994L170.419 141.148L170.434 137.975Z" fill="white"/>
<path d="M139.653 172.135C139.632 172.424 139.526 172.701 139.349 172.931C139.172 173.161 138.931 173.334 138.657 173.428C138.383 173.522 138.087 173.534 137.806 173.462C137.525 173.389 137.271 173.236 137.076 173.021C136.882 172.806 136.754 172.538 136.71 172.251C136.666 171.965 136.707 171.671 136.829 171.407C136.95 171.144 137.146 170.922 137.392 170.768C137.638 170.615 137.924 170.537 138.214 170.545C138.615 170.567 138.991 170.747 139.26 171.044C139.53 171.342 139.671 171.734 139.653 172.135Z" fill="#4CAF4F"/>
<path d="M144.236 172.156C144.25 172.359 144.222 172.563 144.154 172.754C144.086 172.946 143.98 173.122 143.841 173.27C143.702 173.419 143.535 173.538 143.348 173.619C143.162 173.7 142.961 173.742 142.757 173.742C142.554 173.742 142.353 173.7 142.166 173.619C141.98 173.538 141.812 173.419 141.674 173.27C141.535 173.122 141.428 172.946 141.36 172.754C141.293 172.563 141.265 172.359 141.279 172.156C141.265 171.954 141.293 171.75 141.36 171.558C141.428 171.367 141.535 171.191 141.674 171.042C141.812 170.894 141.98 170.775 142.166 170.694C142.353 170.613 142.554 170.571 142.757 170.571C142.961 170.571 143.162 170.613 143.348 170.694C143.535 170.775 143.702 170.894 143.841 171.042C143.98 171.191 144.086 171.367 144.154 171.558C144.222 171.75 144.25 171.954 144.236 172.156Z" fill="#4CAF4F"/>
<path d="M148.825 172.178C148.804 172.467 148.699 172.744 148.521 172.974C148.344 173.204 148.104 173.376 147.829 173.471C147.555 173.565 147.259 173.577 146.978 173.505C146.697 173.432 146.443 173.279 146.249 173.064C146.054 172.849 145.927 172.581 145.883 172.294C145.839 172.007 145.88 171.714 146.001 171.45C146.122 171.187 146.318 170.965 146.564 170.811C146.811 170.658 147.097 170.58 147.387 170.588C147.787 170.612 148.161 170.792 148.43 171.089C148.699 171.386 148.841 171.777 148.825 172.178Z" fill="#4CAF4F"/>
<path d="M153.408 172.2C153.387 172.489 153.281 172.766 153.104 172.996C152.927 173.225 152.686 173.398 152.412 173.493C152.138 173.587 151.842 173.599 151.561 173.526C151.28 173.454 151.026 173.301 150.831 173.086C150.637 172.87 150.509 172.603 150.465 172.316C150.421 172.029 150.462 171.736 150.584 171.472C150.705 171.209 150.901 170.986 151.147 170.833C151.393 170.68 151.679 170.602 151.969 170.61C152.37 170.634 152.744 170.814 153.013 171.111C153.282 171.408 153.424 171.799 153.408 172.2Z" fill="#4CAF4F"/>
<path d="M157.991 172.214C157.971 172.504 157.866 172.781 157.69 173.012C157.514 173.243 157.273 173.417 156.999 173.512C156.725 173.608 156.428 173.62 156.147 173.549C155.865 173.477 155.611 173.324 155.416 173.109C155.22 172.895 155.092 172.627 155.048 172.34C155.003 172.053 155.044 171.759 155.165 171.495C155.286 171.231 155.482 171.008 155.729 170.855C155.975 170.701 156.262 170.623 156.552 170.631C156.951 170.655 157.324 170.834 157.593 171.13C157.862 171.426 158.005 171.815 157.991 172.214Z" fill="#4CAF4F"/>
<path d="M162.581 172.236C162.561 172.524 162.458 172.8 162.283 173.03C162.108 173.261 161.87 173.435 161.598 173.531C161.325 173.628 161.031 173.643 160.75 173.574C160.469 173.506 160.215 173.357 160.018 173.145C159.821 172.934 159.69 172.669 159.641 172.384C159.593 172.1 159.628 171.807 159.744 171.542C159.86 171.277 160.05 171.052 160.292 170.894C160.534 170.736 160.817 170.652 161.106 170.653C161.511 170.668 161.894 170.843 162.17 171.14C162.447 171.436 162.594 171.83 162.581 172.236Z" fill="#4CAF4F"/>
<path d="M167.163 172.257C167.177 172.46 167.15 172.663 167.082 172.855C167.014 173.047 166.907 173.222 166.769 173.371C166.63 173.52 166.462 173.638 166.276 173.719C166.089 173.8 165.888 173.842 165.685 173.842C165.482 173.842 165.28 173.8 165.094 173.719C164.907 173.638 164.74 173.52 164.601 173.371C164.462 173.222 164.356 173.047 164.288 172.855C164.22 172.663 164.192 172.46 164.206 172.257C164.192 172.054 164.22 171.851 164.288 171.659C164.356 171.467 164.462 171.292 164.601 171.143C164.74 170.994 164.907 170.876 165.094 170.795C165.28 170.714 165.482 170.672 165.685 170.672C165.888 170.672 166.089 170.714 166.276 170.795C166.462 170.876 166.63 170.994 166.769 171.143C166.907 171.292 167.014 171.467 167.082 171.659C167.15 171.851 167.177 172.054 167.163 172.257Z" fill="#4CAF4F"/>
<path d="M171.746 172.279C171.726 172.567 171.623 172.843 171.448 173.074C171.273 173.304 171.035 173.478 170.763 173.575C170.49 173.671 170.196 173.686 169.915 173.618C169.634 173.549 169.38 173.4 169.183 173.188C168.986 172.977 168.855 172.712 168.806 172.428C168.758 172.143 168.793 171.85 168.909 171.585C169.025 171.32 169.215 171.095 169.457 170.937C169.699 170.779 169.982 170.695 170.271 170.696C170.676 170.711 171.059 170.886 171.335 171.183C171.612 171.479 171.759 171.873 171.746 172.279Z" fill="#4CAF4F"/>
<path d="M176.328 172.3C176.309 172.59 176.204 172.868 176.028 173.098C175.851 173.329 175.611 173.503 175.337 173.599C175.062 173.694 174.766 173.707 174.485 173.635C174.203 173.564 173.949 173.411 173.753 173.196C173.558 172.981 173.43 172.713 173.385 172.426C173.341 172.139 173.382 171.845 173.503 171.581C173.624 171.317 173.82 171.095 174.066 170.941C174.313 170.788 174.599 170.71 174.89 170.718C175.288 170.742 175.662 170.921 175.931 171.216C176.2 171.512 176.342 171.901 176.328 172.3Z" fill="#4CAF4F"/>
<g opacity="0.2">
<path d="M139.653 172.135C139.632 172.424 139.526 172.701 139.349 172.931C139.172 173.161 138.931 173.334 138.657 173.428C138.383 173.522 138.087 173.534 137.806 173.462C137.525 173.389 137.271 173.236 137.076 173.021C136.882 172.806 136.754 172.538 136.71 172.251C136.666 171.965 136.707 171.671 136.829 171.407C136.95 171.144 137.146 170.922 137.392 170.768C137.638 170.615 137.924 170.537 138.214 170.545C138.615 170.567 138.991 170.747 139.26 171.044C139.53 171.342 139.671 171.734 139.653 172.135Z" fill="white"/>
<path d="M144.236 172.156C144.25 172.359 144.222 172.563 144.154 172.754C144.086 172.946 143.98 173.122 143.841 173.27C143.702 173.419 143.535 173.538 143.348 173.619C143.162 173.7 142.961 173.742 142.757 173.742C142.554 173.742 142.353 173.7 142.166 173.619C141.98 173.538 141.812 173.419 141.674 173.27C141.535 173.122 141.428 172.946 141.36 172.754C141.293 172.563 141.265 172.359 141.279 172.156C141.265 171.954 141.293 171.75 141.36 171.558C141.428 171.367 141.535 171.191 141.674 171.042C141.812 170.894 141.98 170.775 142.166 170.694C142.353 170.613 142.554 170.571 142.757 170.571C142.961 170.571 143.162 170.613 143.348 170.694C143.535 170.775 143.702 170.894 143.841 171.042C143.98 171.191 144.086 171.367 144.154 171.558C144.222 171.75 144.25 171.954 144.236 172.156Z" fill="white"/>
<path d="M148.825 172.178C148.804 172.467 148.699 172.744 148.521 172.974C148.344 173.204 148.104 173.377 147.829 173.471C147.555 173.565 147.259 173.577 146.978 173.505C146.697 173.432 146.443 173.279 146.249 173.064C146.054 172.849 145.927 172.581 145.883 172.295C145.839 172.008 145.88 171.714 146.001 171.451C146.122 171.187 146.318 170.965 146.564 170.811C146.811 170.658 147.097 170.58 147.387 170.588C147.787 170.612 148.161 170.792 148.43 171.09C148.699 171.387 148.841 171.778 148.825 172.178Z" fill="white"/>
<path d="M153.408 172.2C153.387 172.489 153.281 172.766 153.104 172.996C152.927 173.225 152.686 173.398 152.412 173.493C152.138 173.587 151.842 173.599 151.561 173.526C151.28 173.454 151.026 173.301 150.831 173.086C150.637 172.87 150.509 172.603 150.465 172.316C150.421 172.029 150.462 171.736 150.584 171.472C150.705 171.209 150.901 170.986 151.147 170.833C151.393 170.68 151.679 170.602 151.969 170.61C152.37 170.634 152.744 170.814 153.013 171.111C153.282 171.408 153.424 171.799 153.408 172.2Z" fill="white"/>
<path d="M157.991 172.214C157.971 172.504 157.866 172.781 157.69 173.012C157.514 173.243 157.273 173.417 156.999 173.513C156.725 173.608 156.428 173.621 156.147 173.549C155.865 173.477 155.611 173.325 155.416 173.11C155.22 172.895 155.092 172.627 155.048 172.34C155.003 172.053 155.044 171.759 155.165 171.495C155.286 171.231 155.482 171.009 155.729 170.855C155.975 170.701 156.262 170.624 156.552 170.631C156.951 170.656 157.324 170.835 157.593 171.13C157.862 171.426 158.005 171.815 157.991 172.214Z" fill="white"/>
<path d="M162.581 172.236C162.561 172.524 162.458 172.8 162.283 173.03C162.108 173.261 161.87 173.435 161.598 173.531C161.325 173.628 161.031 173.643 160.75 173.574C160.469 173.506 160.215 173.357 160.018 173.145C159.821 172.934 159.69 172.669 159.641 172.384C159.593 172.1 159.628 171.807 159.744 171.542C159.86 171.277 160.05 171.052 160.292 170.894C160.534 170.736 160.817 170.652 161.106 170.653C161.511 170.668 161.894 170.843 162.17 171.14C162.447 171.436 162.594 171.83 162.581 172.236Z" fill="white"/>
<path d="M167.163 172.257C167.177 172.46 167.15 172.663 167.082 172.855C167.014 173.047 166.907 173.222 166.769 173.371C166.63 173.52 166.462 173.638 166.276 173.719C166.089 173.8 165.888 173.842 165.685 173.842C165.482 173.842 165.28 173.8 165.094 173.719C164.907 173.638 164.74 173.52 164.601 173.371C164.462 173.222 164.356 173.047 164.288 172.855C164.22 172.663 164.192 172.46 164.206 172.257C164.192 172.054 164.22 171.851 164.288 171.659C164.356 171.467 164.462 171.292 164.601 171.143C164.74 170.994 164.907 170.876 165.094 170.795C165.28 170.714 165.482 170.672 165.685 170.672C165.888 170.672 166.089 170.714 166.276 170.795C166.462 170.876 166.63 170.994 166.769 171.143C166.907 171.292 167.014 171.467 167.082 171.659C167.15 171.851 167.177 172.054 167.163 172.257Z" fill="white"/>
<path d="M171.746 172.279C171.726 172.567 171.623 172.843 171.448 173.074C171.273 173.304 171.035 173.478 170.763 173.575C170.49 173.671 170.196 173.686 169.915 173.618C169.634 173.549 169.38 173.4 169.183 173.188C168.986 172.977 168.855 172.712 168.806 172.428C168.758 172.143 168.793 171.85 168.909 171.585C169.025 171.32 169.215 171.095 169.457 170.937C169.699 170.779 169.982 170.695 170.271 170.696C170.676 170.711 171.059 170.886 171.335 171.183C171.612 171.479 171.759 171.873 171.746 172.279Z" fill="white"/>
<path d="M176.328 172.3C176.309 172.59 176.204 172.868 176.028 173.098C175.851 173.329 175.611 173.503 175.337 173.599C175.062 173.694 174.766 173.707 174.485 173.635C174.203 173.564 173.949 173.411 173.753 173.196C173.558 172.981 173.43 172.713 173.385 172.426C173.341 172.139 173.382 171.845 173.503 171.581C173.624 171.317 173.82 171.095 174.066 170.941C174.313 170.788 174.599 170.71 174.89 170.718C175.288 170.742 175.662 170.921 175.931 171.216C176.2 171.512 176.342 171.901 176.328 172.3Z" fill="white"/>
</g>
<path d="M169.818 68.4467C170.318 68.2266 170.742 67.8644 171.037 67.4052C171.333 66.946 171.486 66.41 171.48 65.864C171.498 65.509 171.444 65.154 171.321 64.8205C171.198 64.4871 171.009 64.1821 170.764 63.9243C170.52 63.6665 170.225 63.4611 169.898 63.3208C169.572 63.1805 169.22 63.1082 168.865 63.1082C168.509 63.1082 168.157 63.1805 167.831 63.3208C167.504 63.4611 167.21 63.6665 166.965 63.9243C166.72 64.1821 166.531 64.4871 166.408 64.8205C166.285 65.154 166.231 65.509 166.25 65.864C166.239 66.4155 166.391 66.9579 166.688 67.4226C166.985 67.8874 167.414 68.2538 167.919 68.4754C163.89 69.0797 164.07 73.4537 164.07 73.4537L173.595 73.4969C173.595 73.4969 173.818 69.0438 169.818 68.4467Z" fill="#4CAF4F"/>
<path opacity="0.1" d="M169.818 68.4467C170.318 68.2266 170.742 67.8644 171.037 67.4052C171.333 66.946 171.486 66.41 171.48 65.864C171.498 65.509 171.444 65.154 171.321 64.8205C171.198 64.4871 171.009 64.1821 170.764 63.9243C170.52 63.6665 170.225 63.4611 169.898 63.3208C169.572 63.1805 169.22 63.1082 168.865 63.1082C168.509 63.1082 168.157 63.1805 167.831 63.3208C167.504 63.4611 167.21 63.6665 166.965 63.9243C166.72 64.1821 166.531 64.4871 166.408 64.8205C166.285 65.154 166.231 65.509 166.25 65.864C166.239 66.4155 166.391 66.9579 166.688 67.4226C166.985 67.8874 167.414 68.2538 167.919 68.4754C163.89 69.0797 164.07 73.4537 164.07 73.4537L173.595 73.4969C173.595 73.4969 173.818 69.0438 169.818 68.4467Z" fill="black"/>
<path d="M185.296 76.3181L151.347 76.1641L151.329 80.2215L185.277 80.3755L185.296 76.3181Z" fill="#4CAF4F"/>
<path opacity="0.2" d="M185.296 76.3181L151.347 76.1641L151.329 80.2215L185.277 80.3755L185.296 76.3181Z" fill="white"/>
<path d="M60.4895 97.3453H60.1514L59.173 97.4172C58.6435 97.449 58.117 97.5187 57.5975 97.6258C57.261 97.6731 56.9272 97.7379 56.5975 97.8201L55.4824 98.1294C53.5845 98.7117 51.7938 99.5985 50.1804 100.755C48.0487 102.303 46.2687 104.284 44.9575 106.568C44.1868 107.885 43.5735 109.288 43.1302 110.748C42.6644 112.335 42.3962 113.973 42.3317 115.625C42.2888 116.493 42.3032 117.363 42.3748 118.23C42.3748 118.668 42.4971 119.107 42.5547 119.553C42.6031 120.003 42.6873 120.448 42.8065 120.884C43.4534 123.771 44.766 126.467 46.6395 128.756C48.5131 131.046 50.8958 132.866 53.5976 134.071C55.553 134.915 57.6489 135.386 59.7773 135.459C61.9756 135.58 64.1761 135.265 66.2519 134.531L66.885 134.294H66.9713L67.0433 134.337L76.115 138.941L75.8488 139.172C74.8776 136.164 73.9424 133.251 73.0359 130.452V130.344L73.1151 130.265C75.3157 128.049 76.9494 125.334 77.8775 122.352C78.7182 119.625 78.9635 116.75 78.5969 113.92C78.2709 111.406 77.4623 108.978 76.2157 106.769C75.1411 104.873 73.7549 103.17 72.1151 101.734C70.7622 100.597 69.2648 99.6435 67.662 98.8992C66.4491 98.3761 65.186 97.9784 63.8923 97.7122L62.4534 97.4748L61.4103 97.3956L60.7772 97.3525H60.5614C60.6331 97.3445 60.7055 97.3445 60.7772 97.3525H61.4175L62.4606 97.3956L63.8995 97.6043C65.2093 97.851 66.4896 98.2343 67.7195 98.7481C69.3499 99.4836 70.8743 100.434 72.2518 101.575C73.9217 103.006 75.3373 104.708 76.4387 106.611C77.7207 108.843 78.5541 111.304 78.8919 113.856C79.2889 116.729 79.0606 119.654 78.2228 122.431C77.2886 125.475 75.6297 128.248 73.3884 130.51L73.4316 130.323C74.338 133.121 75.2805 136.035 76.2589 139.035L76.3955 139.474L75.9855 139.265L66.9138 134.668H67.072L66.4246 134.905C64.3088 135.65 62.0675 135.973 59.8276 135.855C57.6533 135.772 55.5136 135.284 53.5184 134.416C49.7126 132.786 46.5461 129.953 44.5043 126.352C43.5647 124.688 42.8785 122.894 42.4683 121.028C42.356 120.581 42.2719 120.126 42.2166 119.668C42.159 119.215 42.0655 118.769 42.0439 118.323C41.8492 115.763 42.1197 113.19 42.8424 110.726C43.2968 109.246 43.9272 107.826 44.7201 106.496C46.0626 104.191 47.8797 102.197 50.0509 100.647C51.6909 99.4877 53.5116 98.6077 55.4392 98.0431L56.5687 97.7553C56.9011 97.6782 57.2373 97.6182 57.5759 97.5755C58.1008 97.4783 58.6322 97.4206 59.1658 97.4028L60.1514 97.3669C60.2634 97.3518 60.3764 97.3445 60.4895 97.3453Z" fill="#4CAF4F"/>
<path d="M64.59 114.122H63.2591L60.3815 110.079V107.424C60.3815 107.424 58.324 107.295 58.5686 110.769C58.8132 114.244 58.5686 113.359 58.5686 113.359C58.5686 113.359 54.2018 113.359 53.8421 113.755C53.4824 114.151 53.4608 118.366 53.4105 120.719C53.3829 121.286 53.5456 121.846 53.8728 122.31C54.2 122.774 54.6728 123.115 55.2162 123.28C55.3685 123.322 55.5258 123.344 55.6838 123.345C56.7773 123.345 62.3383 122.46 62.3383 122.46H64.6332L64.59 114.122Z" fill="#4CAF4F"/>
<path d="M68.3957 113.41L67.5756 122.503H65.3022V113.597L68.3957 113.41Z" fill="#4CAF4F"/>
<path d="M95.5102 298.535V292.384L84.4817 292.304L84.3882 301.606L85.0716 301.657C88.1147 301.851 100.553 302.139 102.596 301.506C104.87 300.801 95.5102 298.535 95.5102 298.535Z" fill="#4CAF4F"/>
<path d="M102.855 300.93C102.855 301.031 98.7261 301.117 93.6399 301.117C88.5537 301.117 84.4243 301.031 84.4243 300.93C84.4243 300.829 88.5537 300.743 93.6399 300.743C98.7261 300.743 102.855 300.829 102.855 300.93Z" fill="#263238"/>
<path d="M95.7045 299.793C95.611 299.743 95.7045 299.419 95.9275 299.074C96.1505 298.729 96.4527 298.585 96.5246 298.657C96.5965 298.729 96.4455 299.002 96.2296 299.297C96.0138 299.592 95.798 299.844 95.7045 299.793Z" fill="#263238"/>
<path d="M96.4095 300.196C96.3087 300.196 96.3591 299.793 96.5749 299.412C96.7907 299.031 97.0785 298.801 97.1576 298.858C97.2368 298.916 97.1073 299.239 96.9058 299.578C96.7044 299.916 96.503 300.232 96.4095 300.196Z" fill="#263238"/>
<path d="M87.7479 300.901C87.7048 300.901 87.5393 300.772 87.3019 300.499C87.0121 300.147 86.6893 299.824 86.3379 299.535C85.9924 299.258 85.5807 299.077 85.1437 299.009C84.8056 298.966 84.5898 299.009 84.5682 298.966C84.5466 298.923 84.7552 298.772 85.1509 298.743C85.6731 298.732 86.1825 298.905 86.5897 299.232C86.9713 299.543 87.293 299.921 87.5393 300.347C87.7048 300.664 87.7911 300.873 87.7479 300.901Z" fill="#263238"/>
<path d="M95.7404 298.635C95.7908 298.722 95.6037 298.937 95.2872 299.053C94.9707 299.168 94.6901 299.124 94.6757 299.053C94.6613 298.981 94.8843 298.83 95.1577 298.729C95.4311 298.628 95.6829 298.549 95.7404 298.635Z" fill="#263238"/>
<path d="M95.568 298.038C95.568 298.146 95.2802 298.232 94.9061 298.239C94.532 298.247 94.2371 298.16 94.2443 298.06C94.2515 297.959 94.5464 297.865 94.9061 297.858C95.2658 297.851 95.5536 297.937 95.568 298.038Z" fill="#263238"/>
<path d="M122.668 298.535V292.384L111.639 292.304L111.546 301.513L112.229 301.563C115.272 301.757 127.718 302.139 129.754 301.506C132.027 300.801 122.668 298.535 122.668 298.535Z" fill="#4CAF4F"/>
<path d="M130.013 300.944C130.013 301.045 125.891 301.132 120.798 301.132C115.704 301.132 111.589 301.045 111.589 300.944C111.589 300.844 115.711 300.757 120.798 300.757C125.884 300.757 130.013 300.844 130.013 300.944Z" fill="#263238"/>
<path d="M122.862 299.793C122.776 299.743 122.862 299.419 123.085 299.074C123.308 298.729 123.61 298.585 123.682 298.657C123.754 298.729 123.603 299.002 123.387 299.297C123.171 299.592 122.956 299.844 122.862 299.793Z" fill="#263238"/>
<path d="M123.567 300.196C123.474 300.196 123.517 299.793 123.74 299.412C123.963 299.031 124.243 298.801 124.323 298.858C124.402 298.916 124.265 299.239 124.064 299.578C123.862 299.916 123.668 300.232 123.567 300.196Z" fill="#263238"/>
<path d="M114.905 300.901C114.862 300.901 114.704 300.772 114.459 300.499C114.17 300.147 113.847 299.824 113.495 299.535C113.15 299.258 112.738 299.077 112.301 299.009C111.97 298.966 111.747 299.009 111.726 298.966C111.704 298.923 111.913 298.772 112.308 298.743C112.831 298.732 113.34 298.905 113.747 299.232C114.131 299.541 114.453 299.92 114.697 300.347C114.862 300.664 114.949 300.873 114.905 300.901Z" fill="#263238"/>
<path d="M122.898 298.635C122.948 298.722 122.761 298.937 122.445 299.053C122.128 299.168 121.848 299.124 121.833 299.053C121.819 298.981 122.042 298.83 122.315 298.729C122.589 298.628 122.841 298.549 122.898 298.635Z" fill="#263238"/>
<path d="M122.74 298.038C122.74 298.146 122.452 298.232 122.078 298.239C121.704 298.247 121.416 298.16 121.423 298.06C121.43 297.959 121.718 297.865 122.078 297.858C122.438 297.851 122.74 297.937 122.74 298.038Z" fill="#263238"/>
<path d="M163.3 115.877C163.012 115.582 162.3 115.726 162.3 115.726C162.371 115.312 162.371 114.889 162.3 114.474C162.17 114.072 161.264 114.151 161.264 114.151C161.222 113.811 161.222 113.468 161.264 113.129C161.271 113.054 161.255 112.978 161.218 112.913C161.18 112.847 161.124 112.794 161.055 112.762C160.627 112.587 160.166 112.504 159.703 112.518C159.149 112.122 161.394 108.978 162.228 107.971C163.063 106.964 162.911 106.18 162.17 106.18C161.66 106.18 159.041 109.201 158.235 110.216C157.43 111.23 155.293 114.05 155.221 111.798C155.149 109.547 154.243 107.849 153.674 107.561C153.106 107.273 152.502 107.949 152.811 108.575C153.083 109.286 153.252 110.032 153.315 110.791C153.393 111.395 153.366 112.009 153.235 112.604C152.997 113.712 152.672 114.799 152.264 115.856H152.207C152.207 115.856 136.509 130.913 135.373 131.985C134.358 132.949 113.956 130.841 109.862 130.409C108.471 130.206 107.067 130.11 105.661 130.122C103.884 130.201 103.568 130.452 101.798 130.474C97.3286 130.524 92.8696 130.916 88.4601 131.647C86.4635 131.986 84.5985 132.867 83.0685 134.194C81.5385 135.521 80.4024 137.243 79.7841 139.172C75.6619 152.049 66.324 182.53 64.6765 199.652C63.4317 201.91 62.3078 204.232 61.3097 206.609C60.1515 209.76 60.4321 209.868 60.8205 209.94C61.8709 210.134 63.0651 204.479 63.5111 205.846C63.9571 207.213 61.245 212.587 62.3457 212.745C63.7845 212.947 64.9283 206.99 65.065 206.515C65.2017 206.04 65.9139 206.192 65.7844 206.638C65.5758 207.271 63.5543 213.983 64.9643 214.199C65.7413 214.314 65.8276 212.896 65.8276 212.896C65.8276 212.896 67.2664 206.472 67.9211 206.602C68.5757 206.731 67.8779 210.522 67.547 211.789C67.2161 213.055 67.6765 213.695 68.3527 213.386C68.8131 213.17 69.9138 209.321 70.216 208.069C70.5181 206.817 71.2735 203.35 72.2879 205.357C73.3022 207.364 74.8418 208.53 75.4748 208.558C75.6175 208.542 75.752 208.483 75.8609 208.39C75.9699 208.296 76.0484 208.172 76.0863 208.034C76.1242 207.895 76.1198 207.748 76.0737 207.612C76.0275 207.477 75.9417 207.357 75.8273 207.271C75.2828 206.739 74.8155 206.134 74.4389 205.472C74.1033 204.957 73.8599 204.387 73.7195 203.789C73.4296 202.595 73.2609 201.376 73.2159 200.149L73.1008 199.429C74.7123 191.451 79.3524 168.034 86.0501 153.078L88.7982 158.732L89.9925 162.919L82.6689 180.998L113.906 180.588L109.244 162.646L114.905 143.941C121.028 144.078 136.747 144.308 139.365 143.121C142.66 141.682 159.703 120.158 159.703 120.158C160.814 119.295 161.878 118.372 162.89 117.395C162.89 117.395 163.926 116.525 163.3 115.877Z" fill="#FFBE9D"/>
<path d="M81.2947 167.639C82.2012 164.545 86.8557 149.251 86.8557 149.251C86.8557 149.251 89.1435 161.718 88.5392 163.222C87.9833 164.509 87.3266 165.75 86.5752 166.934C81.2947 174.969 81.9854 178.991 81.9854 178.991L113.891 178.02C113.963 173.559 111.323 163.186 110.776 161.531C110.229 159.876 112.049 154.459 112.049 154.459C112.049 154.459 115.646 150.797 115.517 148.913C115.449 147.219 115.239 145.535 114.891 143.877L134.315 144.596L133.703 131.431L105.805 128.64C104.834 131.381 96.0498 130.035 96.0498 130.035C86.568 130.352 85.9781 132.093 82.0357 135.157C78.0934 138.222 71.5684 164.524 71.5684 164.524L81.2947 167.639Z" fill="#4CAF4F"/>
<path d="M100.158 164.523C99.6048 164.622 99.0417 164.651 98.4815 164.61C97.4384 164.61 96.0068 164.538 94.4313 164.38C92.8558 164.221 91.4314 163.998 90.417 163.797C89.8577 163.725 89.3093 163.585 88.7839 163.38C89.3464 163.38 89.9076 163.433 90.4602 163.538C91.4817 163.667 92.8989 163.847 94.4672 164.006C96.0355 164.164 97.46 164.272 98.4887 164.344C99.0495 164.351 99.6083 164.411 100.158 164.523Z" fill="#263238"/>
<path d="M102.345 161.811C101.792 162.082 101.207 162.283 100.604 162.408C97.7335 163.163 94.7723 163.514 91.8053 163.452C91.1914 163.472 90.5774 163.413 89.978 163.279C90.584 163.202 91.1947 163.171 91.8053 163.185C92.9348 163.149 94.4887 163.07 96.2009 162.869C97.9131 162.667 99.4382 162.38 100.517 162.149C101.117 161.989 101.728 161.876 102.345 161.811Z" fill="#263238"/>
<path d="M113.078 149.711C113.064 150.259 112.989 150.805 112.855 151.337C112.668 152.337 112.38 153.704 112.014 155.2C111.647 156.696 111.294 158.078 110.978 159.013C110.85 159.548 110.662 160.067 110.417 160.56C110.457 160.013 110.558 159.472 110.719 158.948C110.992 157.826 111.301 156.531 111.647 155.114C111.992 153.696 112.323 152.402 112.596 151.279C112.694 150.739 112.856 150.213 113.078 149.711Z" fill="#263238"/>
<path d="M81.633 165.804C79.9687 165.547 78.3261 165.165 76.7194 164.66C75.0777 164.276 73.4666 163.771 71.8994 163.149C73.5629 163.411 75.2051 163.793 76.813 164.293C78.4551 164.676 80.0663 165.181 81.633 165.804Z" fill="#263238"/>
<path d="M115.236 143.718C114.965 143.765 114.688 143.765 114.416 143.718C113.665 143.641 112.927 143.465 112.222 143.193C111.045 142.751 109.974 142.067 109.077 141.187C108.18 140.306 107.477 139.247 107.014 138.078C106.501 136.793 106.283 135.409 106.373 134.028C106.405 132.889 106.746 131.78 107.359 130.819C107.79 130.172 108.434 129.696 109.179 129.474C109.378 129.419 109.584 129.392 109.79 129.395C109.934 129.395 110.006 129.395 110.006 129.395C110.006 129.395 109.704 129.395 109.222 129.589C108.539 129.842 107.959 130.315 107.575 130.934C106.596 132.474 106.323 135.287 107.366 137.913C107.852 139.151 108.612 140.263 109.589 141.164C110.39 141.902 111.312 142.496 112.316 142.92C113.257 143.292 114.237 143.56 115.236 143.718Z" fill="#263238"/>
<path d="M132.006 144.337C131.826 142.131 131.768 139.917 131.833 137.704C131.777 135.493 131.844 133.281 132.035 131.078C132.215 133.282 132.272 135.494 132.207 137.704C132.268 139.917 132.201 142.132 132.006 144.337Z" fill="#263238"/>
<path d="M105.618 129.445C105.697 127.841 105.863 126.028 105.863 126.028C105.863 126.028 109.834 125.589 110.071 121.489C110.308 117.388 110.071 107.928 110.071 107.928L102.877 104.245L94.8916 110.525L96.1218 131.028L103.445 131.496C104.005 131.511 104.548 131.304 104.956 130.92C105.363 130.535 105.601 130.005 105.618 129.445Z" fill="#FFBE9D"/>
<path d="M106.33 118.244C106.33 118.244 106.33 118.323 106.266 118.417C106.212 118.485 106.143 118.538 106.064 118.573C105.985 118.609 105.899 118.624 105.812 118.618C105.352 118.618 104.906 118.086 104.748 117.467C104.672 117.167 104.672 116.853 104.748 116.553C104.762 116.423 104.81 116.297 104.885 116.189C104.96 116.081 105.061 115.994 105.179 115.935C105.276 115.895 105.385 115.895 105.481 115.935C105.553 115.97 105.611 116.028 105.647 116.1C105.697 116.223 105.647 116.302 105.647 116.294C105.647 116.287 105.647 116.223 105.575 116.151C105.537 116.099 105.482 116.063 105.42 116.05C105.357 116.037 105.292 116.047 105.237 116.079C105.149 116.132 105.075 116.207 105.024 116.296C104.972 116.385 104.944 116.486 104.942 116.589C104.881 116.857 104.881 117.135 104.942 117.402C105.086 117.963 105.474 118.417 105.819 118.46C105.887 118.469 105.956 118.464 106.021 118.446C106.087 118.427 106.148 118.395 106.201 118.352C106.287 118.294 106.316 118.237 106.33 118.244Z" fill="#EB996E"/>
<path d="M112.539 105.712C111.985 103.827 109.978 102.892 108.15 102.374C105.366 101.583 102.359 101.237 99.6398 102.237C96.9204 103.237 93.6543 104.993 93.6543 107.993C92.05 107.863 91.1292 109.266 90.4961 111.007C90.0914 112.068 89.8488 113.183 89.7767 114.316C89.5753 118.244 88.4746 123.668 85.9279 126.546C84.4891 128.15 82.4963 129.258 81.6762 131.258C80.9568 132.992 81.3309 135.049 80.6618 136.805C80.0647 138.352 78.7482 139.452 77.7842 140.798C76.8021 142.324 76.2241 144.074 76.1046 145.885C75.985 147.696 76.3278 149.508 77.1008 151.15C77.8793 152.75 78.9754 154.174 80.3223 155.337C81.6692 156.5 83.2386 157.376 84.9351 157.912C88.2955 158.935 91.8789 158.97 95.2586 158.013C97.795 157.406 100.161 156.233 102.179 154.581C104.244 152.895 105.662 150.547 106.194 147.934C106.704 144.999 105.884 142.013 105.273 139.093C103.359 129.863 103.906 129.381 106.323 120.812C106.381 120.661 106.409 120.503 106.453 120.352C106.496 120.201 106.517 120.129 106.546 120.014C106.615 119.675 106.651 119.331 106.654 118.985C106.301 119.116 105.918 119.144 105.549 119.065C105.181 118.986 104.843 118.804 104.575 118.539C104.306 118.257 104.119 117.907 104.033 117.527C103.947 117.148 103.965 116.751 104.086 116.381C104.255 115.976 104.508 115.611 104.828 115.31C105.148 115.009 105.527 114.778 105.942 114.633C106.74 114.302 107.596 114.129 108.381 113.762C110.042 112.971 111.193 111.331 111.978 109.611C112.622 108.42 112.821 107.037 112.539 105.712Z" fill="#263238"/>
<path d="M106.618 118.438C106.77 118.663 106.896 118.904 106.992 119.158C107.208 119.611 107.496 120.251 107.812 120.992L107.87 121.129H107.719L106.999 121.194C106.503 121.194 106.086 121.287 105.596 121.28C105.554 121.271 105.514 121.25 105.482 121.221C105.449 121.193 105.424 121.156 105.409 121.115C105.388 121.049 105.388 120.979 105.409 120.913C105.426 120.816 105.448 120.72 105.474 120.625L105.604 120.115C105.669 119.774 105.77 119.441 105.906 119.122C105.892 119.469 105.842 119.814 105.755 120.151L105.654 120.661C105.618 120.834 105.553 121.1 105.654 121.079C106.014 121.079 106.524 121 106.999 120.971L107.719 120.906L107.625 121.064C107.316 120.345 107.057 119.669 106.906 119.201C106.773 118.962 106.676 118.705 106.618 118.438Z" fill="#4CAF4F"/>
<path d="M81.9855 178.991L113.891 178.02L127.776 232.22L125.222 294.391H108.352L110.416 233.543L98.0786 195.81L99.9778 296.801L82.9279 297.052L81.1366 202.127C81.0574 199.487 80.1942 193.537 80.5179 190.918L81.9855 178.991Z" fill="#263238"/>
<path d="M102.323 196.58C101.801 196.613 101.276 196.582 100.762 196.487C99.7979 196.372 98.4814 196.17 97.0354 195.883C95.5894 195.595 94.2945 195.264 93.3592 194.998C92.8593 194.888 92.3757 194.714 91.9204 194.48C91.9204 194.372 94.2657 194.933 97.1433 195.516C100.021 196.098 102.337 196.472 102.323 196.58Z" fill="#455A64"/>
<path d="M125.049 290.981C125.049 291.081 121.229 291.168 116.517 291.168C111.805 291.168 107.978 291.081 107.978 290.981C107.978 290.88 111.798 290.794 116.517 290.794C121.236 290.794 125.049 290.873 125.049 290.981Z" fill="#455A64"/>
<path d="M99.8267 294.175C99.8267 294.283 96.1146 294.362 91.5392 294.362C86.9637 294.362 83.2588 294.283 83.2588 294.175C83.2588 294.067 86.9709 293.988 91.5392 293.988C96.1074 293.988 99.8267 294.074 99.8267 294.175Z" fill="#455A64"/>
<path d="M97.6254 293.916C97.5247 293.916 97.0787 271.852 96.6255 244.637C96.1722 217.422 95.9061 195.343 95.9996 195.343C96.0931 195.343 96.5535 217.4 96.9996 244.63C97.4456 271.859 97.7334 293.916 97.6254 293.916Z" fill="#455A64"/>
<path d="M122.783 290.981C122.775 290.883 122.775 290.784 122.783 290.686V289.822C122.783 289.045 122.841 287.93 122.884 286.513C122.985 283.636 123.128 279.456 123.308 274.334C123.697 264.032 124.243 249.831 124.841 234.155C124.841 234.004 124.841 233.86 124.841 233.73V233.781C121.064 218.673 117.647 204.961 115.165 195.041L112.287 183.307C111.956 181.933 111.704 180.861 111.524 180.113C111.438 179.76 111.38 179.487 111.33 179.278C111.302 179.185 111.285 179.088 111.28 178.991C111.317 179.081 111.346 179.175 111.366 179.271C111.424 179.473 111.496 179.746 111.596 180.091C111.791 180.811 112.071 181.904 112.431 183.271C113.15 186.048 114.165 190.048 115.431 194.976C117.934 204.889 121.387 218.565 125.215 233.694V233.745C125.215 233.874 125.215 234.025 125.215 234.169C124.574 249.845 123.992 264.039 123.567 274.341C123.344 279.47 123.157 283.621 123.028 286.513C122.956 287.952 122.898 289.045 122.862 289.822C122.862 290.189 122.819 290.477 122.812 290.686C122.813 290.785 122.803 290.884 122.783 290.981Z" fill="#455A64"/>
<path d="M117.28 232.464C116.068 232.863 114.82 233.14 113.553 233.292C111.999 233.558 110.675 233.745 110.078 233.774V233.63C110.273 233.687 110.373 233.723 110.373 233.752C110.373 233.781 110.251 233.752 110.05 233.752H109.618L110.05 233.623C110.611 233.457 111.934 233.184 113.488 232.903C114.735 232.633 116.005 232.486 117.28 232.464Z" fill="#455A64"/>
<path d="M116.985 234.529C115.863 234.58 114.738 234.53 113.625 234.378C112.501 234.355 111.382 234.232 110.28 234.011C112.528 233.828 114.791 234.002 116.985 234.529Z" fill="#455A64"/>
<path opacity="0.2" d="M81.8489 180.135C82.2267 180.62 82.7027 181.02 83.2456 181.309C83.7886 181.598 84.3863 181.769 84.9999 181.811C86.2849 181.963 87.5846 181.939 88.8631 181.739C97.1003 180.825 105.827 179.984 113.891 178.02C103.453 178.602 92.4241 178.408 81.9856 178.991L81.8776 179.883" fill="black"/>
<g opacity="0.2">
<path d="M92.604 194.846L98.4887 217.68L98.0787 195.81L92.604 194.846Z" fill="black"/>
</g>
</svg>
